<?xml version="1.0" encoding="utf-8" ?>
<svg baseProfile="full" height="100%" version="1.1" viewBox="0,0,1000,180" width="100%" xmlns="http://www.w3.org/2000/svg" xmlns:ev="http://www.w3.org/2001/xml-events" xmlns:xlink="http://www.w3.org/1999/xlink"><defs /><rect fill="white" height="180" width="1000" x="0" y="0" /><path d="M0,0 M457.77984619140625,45.09093475341797 L457.77105712890625,45.287193298339844 L457.7059326171875,45.765785217285156 L457.5291748046875,46.622230529785156 L457.1852722167969,47.874603271484375 L456.6444091796875,49.49761199951172 L455.90130615234375,51.43983459472656 L454.980224609375,53.63361740112305 L453.9353332519531,55.98878479003906 L452.8479309082031,58.37906265258789 L451.8166809082031,60.64247131347656 L450.92852783203125,62.62567901611328 L450.2853088378906,64.11241149902344 L449.9410095214844,64.94378662109375 L449.91253662109375,65.07349395751953 L450.0593566894531,64.79159545898438 L450.2427062988281,64.40869903564453 M457.63909912109375,46.77344512939453 L457.7265625,46.9500732421875 L457.89605712890625,47.41381072998047 L458.140380859375,48.274906158447266 L458.42279052734375,49.55548858642578 L458.7307434082031,51.2042350769043 L459.0586242675781,53.11542892456055 L459.4269714355469,55.1579475402832 L459.8703918457031,57.22307586669922 L460.3768005371094,59.16120147705078 L460.9051818847656,60.830589294433594 L461.334716796875,62.005828857421875 L461.5982971191406,62.646270751953125 M453.5222473144531,54.39055252075195 L453.8006896972656,54.35371780395508 L454.4755859375,54.30696487426758 L455.6360778808594,54.26333236694336 L457.2901611328125,54.2379150390625 L459.30419921875,54.21941375732422 L461.45306396484375,54.18476104736328 L463.20953369140625,54.14191818237305 L464.3136901855469,54.10380935668945 M468.0461120605469,49.25104904174805 L468.10308837890625,49.50959014892578 L468.1887512207031,50.089820861816406 L468.28900146484375,51.081600189208984 L468.3749084472656,52.46879959106445 L468.4349365234375,54.203128814697266 L468.4537048339844,56.16429138183594 L468.4446716308594,58.20848846435547 L468.4215087890625,60.142539978027344 L468.41107177734375,61.77647399902344 L468.4313049316406,62.981842041015625 L468.4721984863281,63.70307159423828 L468.5057678222656,63.92839813232422 L468.49884033203125,63.679264068603516 L468.4352722167969,62.94108581542969 L468.3270568847656,61.719120025634766 L468.21392822265625,60.11378479003906 L468.13702392578125,58.258766174316406 L468.13214111328125,56.29765319824219 L468.22088623046875,54.35406494140625 L468.4227294921875,52.49101257324219 L468.7609558105469,50.76450729370117 L469.2701721191406,49.2386589050293 L469.9610290527344,47.96295928955078 L470.8301696777344,46.99169921875 L471.8400573730469,46.360252380371094 L472.9189758300781,46.07982635498047 L473.99261474609375,46.15216064453125 L474.9884033203125,46.56069564819336 L475.8225402832031,47.27336883544922 L476.43182373046875,48.23944091796875 L476.74639892578125,49.36568069458008 L476.7237243652344,50.54753875732422 L476.3590393066406,51.67206573486328 L475.6809997558594,52.6579704284668 L474.7509765625,53.46571731567383 L473.66387939453125,54.06743240356445 L472.5166320800781,54.45573043823242 L471.4150085449219,54.65065383911133 L470.4456787109375,54.668006896972656 L469.68890380859375,54.55997085571289 L469.1795654296875,54.393836975097656 L468.9296875,54.22404479980469 L468.9225158691406,54.12114715576172 L469.13311767578125,54.15425491333008 L469.5357971191406,54.37923812866211 L470.1363830566406,54.865482330322266 L470.90289306640625,55.63520431518555 L471.791259765625,56.65129089355469 L472.7540588378906,57.84511947631836 L473.7698059082031,59.12449645996094 L474.8072814941406,60.38725280761719 L475.84576416015625,61.52248001098633 L476.8222351074219,62.418212890625 L477.6484375,62.99238967895508 L478.2132568359375,63.26613235473633 L478.514892578125,63.337310791015625 M484.5179748535156,49.300628662109375 L484.5478210449219,49.4670295715332 L484.57427978515625,49.90141677856445 L484.5751953125,50.70061492919922 L484.5145568847656,51.86024475097656 L484.3930358886719,53.31891632080078 L484.2344970703125,54.980438232421875 L484.0655517578125,56.727935791015625 L483.91961669921875,58.41111755371094 L483.82525634765625,59.87248611450195 L483.77642822265625,60.91281509399414 L483.76422119140625,61.489200592041016 L483.76885986328125,61.69606399536133 M483.2923889160156,47.428287506103516 L483.3724670410156,47.55078887939453 L483.5500183105469,47.895511627197266 L483.84698486328125,48.56827163696289 L484.25396728515625,49.60107421875 L484.7491149902344,50.94621658325195 L485.2983093261719,52.525177001953125 L485.90875244140625,54.247657775878906 L486.59918212890625,55.996559143066406 L487.39093017578125,57.648399353027344 L488.2880859375,59.0694694519043 L489.2373046875,60.13814163208008 L490.15283203125,60.7740592956543 L490.96514892578125,60.91624069213867 L491.6439208984375,60.52161407470703 L492.2010498046875,59.565738677978516 L492.6735534667969,58.083282470703125 L493.07061767578125,56.18580627441406 L493.3780212402344,54.04255676269531 L493.5782470703125,51.8388671875 L493.687744140625,49.74966049194336 L493.7552185058594,47.93292236328125 L493.8282470703125,46.49592971801758 L493.9146728515625,45.49496841430664 L493.9949645996094,45.0 L494.0414123535156,45.01335144042969 L494.0590515136719,45.462554931640625 L494.0620422363281,46.04974365234375 L494.0662841796875,46.52851486206055 M503.4184265136719,48.24885559082031 L503.3836975097656,48.16300964355469 L503.2613830566406,48.195159912109375 L502.98583984375,48.52339172363281 L502.5102233886719,49.33634948730469 L501.84619140625,50.6556396484375 L501.0462646484375,52.42850112915039 L500.17791748046875,54.50338363647461 L499.3740539550781,56.670902252197266 L498.72576904296875,58.66887664794922 L498.3127136230469,60.25568389892578 L498.1255798339844,61.251895904541016 L498.0899658203125,61.709442138671875 M500.50189208984375,49.24991989135742 L500.68597412109375,49.2940559387207 L501.10198974609375,49.4624137878418 L501.77923583984375,49.830894470214844 L502.67694091796875,50.456336975097656 L503.7330627441406,51.358551025390625 L504.8671569824219,52.53788375854492 L505.98626708984375,53.95362091064453 L507.0152282714844,55.52510452270508 L507.8828430175781,57.14875411987305 L508.54534912109375,58.709774017333984 L509.00982666015625,60.11748123168945 L509.27972412109375,61.25996398925781 L509.3604431152344,62.03032302856445 L509.2691650390625,62.36954116821289 L509.110107421875,62.40068435668945 L508.96124267578125,62.28672409057617 M499.6380920410156,54.85718536376953 L499.955078125,54.845428466796875 L500.6724853515625,54.846561431884766 L501.8421936035156,54.8731689453125 L503.4705505371094,54.93029022216797 L505.44866943359375,54.99123764038086 L507.5816955566406,55.01772689819336 L509.34027099609375,55.006248474121094 L510.46453857421875,54.977455139160156 M517.42529296875,50.69295883178711 L517.3390502929688,50.94683837890625 L517.1971435546875,51.53575134277344 L517.0023193359375,52.529476165771484 L516.7882080078125,53.887454986572266 L516.5525512695312,55.52040100097656 L516.2985229492188,57.30583572387695 L516.057373046875,59.104774475097656 L515.8599853515625,60.737422943115234 L515.7229614257812,62.02803421020508 L515.6670532226562,62.86746597290039 L515.6619873046875,63.282833099365234 L515.6740112304688,63.40798568725586 M513.7142333984375,49.923824310302734 L513.8264770507812,49.600643157958984 L514.1926879882812,49.141571044921875 L514.9171752929688,48.642337799072266 L516.045654296875,48.25682830810547 L517.53173828125,48.02364730834961 L519.281982421875,47.96794891357422 L521.1460571289062,48.1045036315918 L522.977294921875,48.45436477661133 L524.577392578125,48.983516693115234 L525.7772216796875,49.634986877441406 L526.4256591796875,50.35188674926758 L526.4218139648438,51.07407760620117 L525.7299194335938,51.7675895690918 L524.423583984375,52.397804260253906 L522.6781005859375,52.94175338745117 L520.798095703125,53.380699157714844 L519.0885009765625,53.713600158691406 L517.8226928710938,53.95051193237305 L517.1803588867188,54.122169494628906 L517.2232666015625,54.264251708984375 L517.9249267578125,54.43215560913086 L519.2250366210938,54.67273712158203 L520.9549560546875,55.03692626953125 L522.9288330078125,55.56620788574219 L524.9259643554688,56.26604080200195 L526.7220458984375,57.10113525390625 L528.1333618164062,58.010772705078125 L529.04248046875,58.92247009277344 L529.3516845703125,59.783546447753906 L529.0297241210938,60.56278991699219 L528.072998046875,61.2413330078125 L526.53125,61.79374694824219 L524.5401000976562,62.21227264404297 L522.3060302734375,62.48704528808594 L520.076904296875,62.626346588134766 L518.0995483398438,62.63384246826172 L516.5452880859375,62.53723907470703 L515.4786376953125,62.35735321044922 L514.88525390625,62.17915725708008 L514.638916015625,62.05030059814453 M545.7667846679688,48.814453125 L545.5673828125,49.22975158691406 L545.286376953125,50.076148986816406 L544.9906005859375,51.36615753173828 L544.7604370117188,52.95947265625 L544.5889892578125,54.717315673828125 L544.4609985351562,56.50773239135742 L544.3554077148438,58.23473358154297 L544.2645263671875,59.77001190185547 L544.1889038085938,60.96572494506836 L544.1091918945312,61.71411895751953 L544.0377807617188,62.051937103271484 L543.9871215820312,62.11821365356445 M541.7412109375,47.45390701293945 L541.90869140625,47.14104461669922 L542.3526000976562,46.720863342285156 L543.163818359375,46.31885528564453 L544.3707275390625,46.118377685546875 L545.9322509765625,46.17937088012695 L547.7510375976562,46.55714797973633 L549.6859130859375,47.2646484375 L551.6239013671875,48.3074951171875 L553.3985595703125,49.633602142333984 L554.8720703125,51.17033004760742 L555.906982421875,52.84476852416992 L556.408203125,54.58855438232422 L556.3204345703125,56.33432388305664 L555.6810302734375,58.00825119018555 L554.545654296875,59.522499084472656 L553.0311889648438,60.79316329956055 L551.2667846679688,61.74155807495117 L549.3890380859375,62.307071685791016 L547.526611328125,62.487648010253906 L545.8201904296875,62.267513275146484 L544.3823852539062,61.6938362121582 L543.3071899414062,60.8578987121582 L542.650146484375,60.062164306640625 L542.347412109375,59.50115966796875 M564.6658935546875,48.70802688598633 L564.6343994140625,48.57700729370117 L564.5302124023438,48.46577835083008 L564.2881469726562,48.504791259765625 L563.8551025390625,48.86979293823242 L563.2051391601562,49.635650634765625 L562.35888671875,50.82310104370117 L561.388916015625,52.370845794677734 L560.4146728515625,54.17809295654297 L559.5542602539062,56.097679138183594 L558.9463500976562,57.9965934753418 L558.7066040039062,59.73019790649414 L558.9229736328125,61.19023895263672 L559.6258544921875,62.295257568359375 L560.7733154296875,63.00721740722656 L562.225830078125,63.321842193603516 L563.8236694335938,63.26910400390625 L565.3670654296875,62.91935729980469 L566.698974609375,62.3820686340332 L567.629638671875,61.87579345703125 L568.1356201171875,61.533653259277344 M559.5391845703125,55.2764778137207 L559.9747314453125,55.28853988647461 L560.8219604492188,55.28608322143555 L562.0657348632812,55.25723648071289 L563.5550537109375,55.17195510864258 L565.1246948242188,55.02449417114258 L566.599853515625,54.81420135498047 L567.70654296875,54.6092414855957 L568.35302734375,54.45859146118164 M563.6118774414062,48.55597686767578 L564.0305786132812,48.48798370361328 L564.9620361328125,48.35466384887695 L566.4569702148438,48.15556335449219 L568.4375610351562,47.90135192871094 L570.702880859375,47.60837936401367 L573.0227661132812,47.305145263671875 L574.879150390625,47.065311431884766 L576.0343017578125,46.916194915771484 " fill="none" stroke="black" stroke-linecap="round" stroke-width="2" /><path d="M0,0 M410.7898864746094,120.1787109375 L411.0837097167969,119.67906188964844 L411.68927001953125,118.7357406616211 L412.65460205078125,117.34239196777344 L413.92156982421875,115.63867950439453 L415.42132568359375,113.705810546875 L417.049072265625,111.65705108642578 L418.6800537109375,109.62315368652344 L420.1785583496094,107.79873657226562 L421.4354248046875,106.34803771972656 L422.3819580078125,105.39643859863281 L422.9800109863281,105.0 L423.2301940917969,105.20101165771484 L423.1540222167969,106.05490112304688 L422.741943359375,107.60601806640625 L422.03680419921875,109.79083251953125 L421.1401062011719,112.44876861572266 L420.1794128417969,115.33048248291016 L419.3187255859375,118.16816711425781 L418.6700439453125,120.7513198852539 L418.2871398925781,122.85560607910156 L418.1826477050781,124.29930877685547 L418.32342529296875,125.01387023925781 L418.5543518066406,125.1877212524414 L418.7638244628906,125.08340454101562 M429.56964111328125,106.00656127929688 L429.54541015625,106.02793884277344 L429.4253234863281,106.19176483154297 L429.15472412109375,106.61370849609375 L428.68798828125,107.35501861572266 L428.0555114746094,108.37948608398438 L427.31549072265625,109.5526123046875 L426.6095275878906,110.71394348144531 L426.09112548828125,111.72906494140625 L425.9122619628906,112.5120849609375 L426.15447998046875,113.01432800292969 L426.8462219238281,113.25582122802734 L427.90185546875,113.25765228271484 L429.2264709472656,113.1056137084961 L430.6761474609375,112.92768859863281 L432.1104431152344,112.83219146728516 L433.4212646484375,112.90013885498047 L434.5600280761719,113.19343566894531 L435.4858703613281,113.73737335205078 L436.17535400390625,114.56835174560547 L436.5543212890625,115.70841217041016 L436.5406494140625,117.11837768554688 L436.08673095703125,118.71649169921875 L435.2231140136719,120.36009216308594 L434.0368957519531,121.90233612060547 L432.62701416015625,123.19283294677734 L431.0834045410156,124.10442352294922 L429.4833679199219,124.56163024902344 L427.9444580078125,124.45144653320312 L426.6130676269531,123.74715423583984 L425.6265563964844,122.5479507446289 L425.04302978515625,121.33222198486328 L424.7994689941406,120.44549560546875 M429.75372314453125,107.18407440185547 L429.9714660644531,107.13691711425781 L430.5618896484375,107.04411315917969 L431.63677978515625,106.90950012207031 L433.2247314453125,106.75279998779297 L435.1761169433594,106.60159301757812 L437.25799560546875,106.48043060302734 L438.9463195800781,106.40128326416016 L439.99847412109375,106.36344909667969 M444.83038330078125,106.10446166992188 L444.713623046875,106.58729553222656 L444.4559631347656,107.57154083251953 L444.0252380371094,109.11520385742188 L443.43426513671875,111.10281372070312 L442.7188415527344,113.4238510131836 L441.9557189941406,115.9072036743164 L441.24627685546875,118.37904357910156 L440.7020568847656,120.61616516113281 L440.402587890625,122.40934753417969 L440.3574523925781,123.61271667480469 L440.454345703125,124.24612426757812 L440.5778503417969,124.46096801757812 M439.4230651855469,114.565673828125 L439.837646484375,114.64717102050781 L440.701904296875,114.75505065917969 L442.014892578125,114.83576202392578 L443.6573791503906,114.75978088378906 L445.45147705078125,114.4443359375 L447.2035217285156,113.88690185546875 L448.55908203125,113.30680084228516 L449.38323974609375,112.87381744384766 M452.1827392578125,105.39404296875 L452.0186462402344,105.78453063964844 L451.7554931640625,106.68213653564453 L451.4075622558594,108.18023681640625 L451.0167541503906,110.19509887695312 L450.564453125,112.54000091552734 L450.08929443359375,115.00627899169922 L449.6477355957031,117.36124420166016 L449.31591796875,119.40772247314453 L449.1531982421875,120.97216033935547 L449.1875,121.94043731689453 L449.41497802734375,122.23688507080078 L449.84967041015625,121.86231994628906 L450.5411376953125,120.87256622314453 L451.51092529296875,119.41682434082031 L452.7599792480469,117.72218322753906 L454.2106018066406,116.05216217041016 L455.7355651855469,114.62838745117188 L457.1834716796875,113.5963363647461 L458.4583740234375,113.05110168457031 L459.48272705078125,113.03788757324219 L460.21868896484375,113.57329559326172 L460.6216125488281,114.6384506225586 L460.7061767578125,116.15980529785156 L460.53924560546875,117.98643493652344 L460.295654296875,119.9336166381836 L460.1766357421875,121.77323913574219 L460.34130859375,123.30560302734375 L460.9259033203125,124.31281280517578 L461.94427490234375,124.68128204345703 L463.2959289550781,124.42034912109375 L464.5474853515625,123.8823013305664 L465.4112854003906,123.37810516357422 M485.23516845703125,109.23162078857422 L485.0843200683594,108.8777084350586 L484.7471923828125,108.34514617919922 L484.15179443359375,107.79496765136719 L483.2746887207031,107.48280334472656 L482.1055908203125,107.56047058105469 L480.67303466796875,108.13481903076172 L479.0732421875,109.23607635498047 L477.458251953125,110.8114242553711 L475.994384765625,112.77763366699219 L474.8583984375,114.98542022705078 L474.18145751953125,117.25923156738281 L474.03466796875,119.42119598388672 L474.4343566894531,121.298583984375 L475.3457946777344,122.73424530029297 L476.68670654296875,123.63179016113281 L478.3509826660156,123.93714904785156 L480.228759765625,123.65180969238281 L482.1939392089844,122.82546997070312 L484.12261962890625,121.5347671508789 L485.88372802734375,119.87531280517578 L487.34027099609375,117.96167755126953 L488.3753967285156,115.92167663574219 L488.92962646484375,113.90018463134766 L488.97210693359375,112.03828430175781 L488.5368957519531,110.45291137695312 L487.67413330078125,109.2125244140625 L486.4691162109375,108.34630584716797 L485.067138671875,107.88301849365234 L483.67352294921875,107.80795288085938 L482.48394775390625,108.0549087524414 L481.68829345703125,108.41152954101562 L481.2904052734375,108.7054214477539 M495.6839599609375,114.5292739868164 L495.066162109375,114.4132080078125 L494.035888671875,114.38870239257812 L492.68695068359375,114.61322021484375 L491.25982666015625,115.23168182373047 L489.884033203125,116.25067901611328 L488.71221923828125,117.59239959716797 L487.8829650878906,119.13726806640625 L487.5504455566406,120.72303009033203 L487.7979431152344,122.1794204711914 L488.6288757324219,123.34332275390625 L489.97308349609375,124.11660766601562 L491.75433349609375,124.36289978027344 L493.8066101074219,124.05857849121094 L495.92156982421875,123.25318908691406 L497.61700439453125,122.3509521484375 L498.6651916503906,121.65567016601562 M504.6243896484375,107.92667388916016 L504.5484619140625,108.3414306640625 L504.39898681640625,109.18102264404297 L504.1605224609375,110.48362731933594 L503.8471374511719,112.15934753417969 L503.4927062988281,114.12814331054688 L503.1291809082031,116.250244140625 L502.8001708984375,118.38050842285156 L502.5672607421875,120.32627868652344 L502.46075439453125,121.88693237304688 L502.4886474609375,122.93822479248047 L502.58929443359375,123.49322509765625 L502.6902770996094,123.68228912353516 M499.83099365234375,115.87492370605469 L499.94244384765625,115.83838653564453 L500.3340148925781,115.7944107055664 L501.1402893066406,115.75430297851562 L502.46441650390625,115.72408294677734 L504.2327880859375,115.6994400024414 L506.24517822265625,115.6791763305664 L507.951416015625,115.6652603149414 L509.0513916015625,115.66049194335938 M514.8050537109375,116.14783477783203 L514.5818481445312,116.01248931884766 L514.10791015625,115.84442901611328 L513.3308715820312,115.7535171508789 L512.2864990234375,115.89965057373047 L511.0633544921875,116.37654876708984 L509.8205261230469,117.2132568359375 L508.7523498535156,118.33307647705078 L508.0491027832031,119.6021957397461 L507.839111328125,120.85531616210938 L508.1663818359375,121.92431640625 L509.0224304199219,122.66700744628906 L510.3231201171875,122.99176025390625 L511.9273376464844,122.84669494628906 L513.6632080078125,122.2596206665039 L515.3378295898438,121.32139587402344 L516.751953125,120.14698028564453 L517.7674560546875,118.8750991821289 L518.3001708984375,117.63809204101562 L518.32861328125,116.54241180419922 L517.9190673828125,115.69062042236328 L517.2371826171875,115.14839172363281 L516.471923828125,114.91229248046875 L515.86328125,114.88327026367188 L515.5135498046875,114.94294738769531 M525.2349853515625,107.58665466308594 L525.217529296875,107.7837142944336 L525.1236572265625,108.28754425048828 L524.9075927734375,109.21508026123047 L524.5431518554688,110.58674621582031 L524.04736328125,112.34590911865234 L523.4521484375,114.37187194824219 L522.813720703125,116.52587890625 L522.199462890625,118.61438751220703 L521.676513671875,120.46311950683594 L521.288330078125,121.90709686279297 L521.0530395507812,122.8088607788086 L520.977783203125,123.09342193603516 L521.0867309570312,122.76972961425781 L521.415771484375,121.86406707763672 L522.0022583007812,120.51399230957031 L522.863037109375,118.90987396240234 L523.9833984375,117.2568130493164 L525.3220825195312,115.76273345947266 L526.820556640625,114.61834716796875 L528.365234375,113.9285888671875 L529.8268432617188,113.7666015625 L531.05615234375,114.13082885742188 L531.947021484375,114.96543884277344 L532.43115234375,116.16331481933594 L532.4974365234375,117.60486602783203 L532.1289672851562,119.1325912475586 L531.3538208007812,120.58908081054688 L530.2001953125,121.81575775146484 L528.771240234375,122.68997955322266 L527.199951171875,123.12986755371094 L525.6547241210938,123.15863037109375 L524.3232421875,122.78755950927734 L523.3798828125,122.09305572509766 L522.9041748046875,121.18528747558594 L522.7905883789062,120.36067199707031 L522.863037109375,119.79412841796875 M533.894287109375,121.19351196289062 L534.2818603515625,120.90853881835938 L535.0146484375,120.3265380859375 L536.0595703125,119.44371795654297 L537.253662109375,118.34935760498047 L538.4393920898438,117.16282653808594 L539.4617919921875,116.00273895263672 L540.198486328125,114.96858215332031 L540.5706787109375,114.14244079589844 L540.5266723632812,113.61315155029297 L540.0535888671875,113.43256378173828 L539.178466796875,113.67314147949219 L537.998046875,114.35859680175781 L536.685302734375,115.46088409423828 L535.4795532226562,116.88602447509766 L534.6133422851562,118.49282836914062 L534.3450927734375,120.07124328613281 L534.7900390625,121.42845916748047 L535.894287109375,122.41547393798828 L537.121337890625,122.98163604736328 L538.0578002929688,123.20883178710938 M545.779052734375,114.70803833007812 M545.64453125,115.97526550292969 L545.4700927734375,116.69698333740234 L545.135009765625,117.89872741699219 L544.6724853515625,119.42254638671875 L544.201904296875,120.89842224121094 L543.8286743164062,122.13521575927734 L543.6280517578125,122.98235321044922 L543.6370849609375,123.36920166015625 L543.8409423828125,123.22025299072266 L544.2315673828125,122.51801300048828 L544.8001708984375,121.30005645751953 L545.521240234375,119.72466278076172 L546.3843383789062,118.01244354248047 L547.393310546875,116.3720703125 L548.5474853515625,114.95982360839844 L549.898681640625,113.88327026367188 L551.4149169921875,113.17179870605469 L553.0042724609375,112.81037902832031 L554.3074951171875,112.69904327392578 L555.1318359375,112.71085357666016 M563.7244262695312,110.09794616699219 L563.7724609375,109.762939453125 L563.91796875,109.26641845703125 L564.2232055664062,108.69662475585938 L564.7307739257812,108.1925048828125 L565.4521484375,107.76701354980469 L566.3692626953125,107.47332000732422 L567.4253540039062,107.33386993408203 L568.5360717773438,107.40298461914062 L569.611083984375,107.69918823242188 L570.5560302734375,108.21495056152344 L571.2698974609375,108.92562866210938 L571.6669921875,109.84098815917969 L571.6837768554688,110.956298828125 L571.2830810546875,112.2457275390625 L570.4859619140625,113.66533660888672 L569.3802490234375,115.15320587158203 L568.0646362304688,116.62320709228516 L566.6583251953125,118.00618743896484 L565.2872314453125,119.22185516357422 L564.0430297851562,120.18184661865234 L562.9951171875,120.83049774169922 L562.2029418945312,121.1309814453125 L561.672119140625,121.07220458984375 L561.4033813476562,120.68920135498047 L561.4049072265625,120.0356674194336 L561.68212890625,119.19735717773438 L562.2476196289062,118.30268096923828 L563.10498046875,117.48342895507812 L564.22998046875,116.86261749267578 L565.5740966796875,116.5328369140625 L567.052734375,116.54254913330078 L568.5428466796875,116.89532470703125 L569.9298095703125,117.57168579101562 L571.105712890625,118.50143432617188 L572.0194091796875,119.59373474121094 L572.7039794921875,120.72661590576172 L573.2264404296875,121.75953674316406 L573.6480712890625,122.57002258300781 L573.9620361328125,123.08314514160156 L574.1557006835938,123.3201675415039 M582.447265625,109.8131103515625 L582.4095458984375,109.42352294921875 L582.3013916015625,108.88816833496094 L582.071044921875,108.36180877685547 L581.67236328125,108.06114196777344 L581.0744018554688,108.05635070800781 L580.2728271484375,108.38410949707031 L579.3201904296875,109.04783630371094 L578.2767333984375,110.06281280517578 L577.2319946289062,111.39523315429688 L576.275146484375,112.96116638183594 L575.5282592773438,114.66149139404297 L575.0863037109375,116.3740234375 L575.040283203125,117.97482299804688 L575.421630859375,119.34492492675781 L576.2194213867188,120.3740005493164 L577.35595703125,120.9739761352539 L578.766357421875,121.09516906738281 L580.348876953125,120.74653625488281 L581.998779296875,119.96501922607422 L583.59375,118.82086944580078 L585.0111083984375,117.40729522705078 L586.11376953125,115.82679748535156 L586.8157958984375,114.17302703857422 L587.076171875,112.56851196289062 L586.893798828125,111.08902740478516 L586.3226928710938,109.8049545288086 L585.4580688476562,108.75508117675781 L584.3616333007812,107.96549224853516 L583.1514892578125,107.43843841552734 L581.9655151367188,107.18511962890625 L581.043701171875,107.1177749633789 L580.4949951171875,107.14936065673828 M591.3571166992188,107.73218536376953 L591.6422119140625,107.59647369384766 L592.2238159179688,107.42467498779297 L593.1341552734375,107.28681945800781 L594.2998046875,107.27767944335938 L595.648193359375,107.4399642944336 L597.0330810546875,107.79476165771484 L598.3094482421875,108.35252380371094 L599.331298828125,109.1072998046875 L599.9588623046875,110.0377197265625 L600.084228515625,111.11150360107422 L599.6748046875,112.30550384521484 L598.7408447265625,113.60250854492188 L597.3763427734375,114.9776840209961 L595.7525634765625,116.36919403076172 L594.080810546875,117.7103500366211 L592.5768432617188,118.90045166015625 L591.418212890625,119.84214782714844 L590.6604614257812,120.49195861816406 L590.263916015625,120.84855651855469 L590.1544189453125,120.9402084350586 L590.2789306640625,120.84503936767578 L590.6492919921875,120.61007690429688 L591.3080444335938,120.269775390625 L592.2413330078125,119.88249969482422 L593.38720703125,119.49311828613281 L594.6544189453125,119.1573715209961 L595.9486694335938,118.94145202636719 L597.2001953125,118.87215423583984 L598.3497314453125,118.9458236694336 L599.3394165039062,119.13655853271484 L600.1387939453125,119.39730072021484 L600.769775390625,119.6717758178711 L601.2843627929688,119.91039276123047 L601.7328491210938,120.0631332397461 L602.0753784179688,120.1286849975586 L602.291259765625,120.13153839111328 M605.7737426757812,109.83258056640625 L606.05859375,109.62739562988281 L606.7456665039062,109.2870864868164 L607.9057006835938,108.86465454101562 L609.4530029296875,108.47042846679688 L611.1962890625,108.17156219482422 L612.9498291015625,108.01775360107422 L614.5193481445312,108.0242919921875 L615.7503662109375,108.1777572631836 L616.49560546875,108.45170593261719 L616.637939453125,108.80606842041016 L616.142822265625,109.2296371459961 L615.0734252929688,109.7194595336914 L613.6204833984375,110.26663970947266 L612.0673217773438,110.8392333984375 L610.7105712890625,111.405029296875 L609.7849731445312,111.92992401123047 L609.43798828125,112.42752838134766 L609.67333984375,112.92179107666016 L610.4620361328125,113.44524383544922 L611.71484375,114.04910278320312 L613.286376953125,114.76126861572266 L614.98974609375,115.58504486083984 L616.630615234375,116.49195098876953 L618.0035400390625,117.4162826538086 L618.97802734375,118.278564453125 L619.4722900390625,119.05399322509766 L619.4364624023438,119.70936584472656 L618.8511962890625,120.23868560791016 L617.7339477539062,120.61976623535156 L616.1431884765625,120.83161926269531 L614.2123413085938,120.84770202636719 L612.1383056640625,120.681884765625 L610.1444091796875,120.35962677001953 L608.4088134765625,119.95072937011719 L607.0221557617188,119.5184326171875 L606.0396728515625,119.12625885009766 L605.4630126953125,118.80791473388672 L605.2647705078125,118.56411743164062 L605.30517578125,118.40234375 L605.433349609375,118.31689453125 " fill="none" stroke="black" stroke-linecap="round" stroke-width="2" /></svg>