<?xml version="1.0" encoding="utf-8" ?>
<svg baseProfile="full" height="100%" version="1.1" viewBox="0,0,1000,180" width="100%" xmlns="http://www.w3.org/2000/svg" xmlns:ev="http://www.w3.org/2001/xml-events" xmlns:xlink="http://www.w3.org/1999/xlink"><defs /><rect fill="white" height="180" width="1000" x="0" y="0" /><path d="M0,0 M468.1379699707031,45.53422164916992 L468.039306640625,45.807159423828125 L467.8261413574219,46.44020080566406 L467.44976806640625,47.52470779418945 L466.8993835449219,49.0411376953125 L466.1700439453125,50.923160552978516 L465.2823791503906,53.080928802490234 L464.27215576171875,55.407470703125 L463.2197265625,57.77877426147461 L462.2223205566406,60.00027084350586 L461.3987121582031,61.86484909057617 L460.8558349609375,63.12955093383789 L460.5901184082031,63.783424377441406 M467.8844909667969,45.15702438354492 L468.10430908203125,45.27935028076172 L468.4772644042969,45.6668701171875 L468.9789123535156,46.45933532714844 L469.51275634765625,47.711021423339844 L470.0611572265625,49.397796630859375 L470.5989990234375,51.42731857299805 L471.124267578125,53.68077850341797 L471.6388244628906,56.06453323364258 L472.1354064941406,58.42079544067383 L472.580322265625,60.55910110473633 L472.9148254394531,62.13353729248047 L473.1099853515625,63.03118133544922 M463.82073974609375,56.11296844482422 L464.13421630859375,56.159584045410156 L464.8709716796875,56.23752975463867 L466.11883544921875,56.34968185424805 L467.85748291015625,56.45917510986328 L469.92608642578125,56.54384994506836 L472.0872802734375,56.58182144165039 L473.82391357421875,56.58201599121094 L474.897216796875,56.560176849365234 M480.4145202636719,54.75233459472656 L480.40460205078125,55.1198844909668 L480.4063415527344,55.88161087036133 L480.42864990234375,57.06227111816406 L480.4627685546875,58.53917694091797 L480.49908447265625,60.14595031738281 L480.5264892578125,61.66362762451172 L480.5445251464844,62.90129470825195 L480.5660705566406,63.73311233520508 L480.59814453125,64.06756591796875 L480.63470458984375,63.87115478515625 L480.7032165527344,63.14147186279297 L480.8281555175781,61.93121337890625 L481.0486755371094,60.39016342163086 L481.3968811035156,58.71931457519531 L481.90960693359375,57.09731674194336 L482.60418701171875,55.65129470825195 L483.51983642578125,54.449703216552734 L484.6527404785156,53.53691864013672 L485.97772216796875,52.9755859375 L487.38970947265625,52.782711029052734 L488.75408935546875,52.89464569091797 L489.78997802734375,53.12710952758789 L490.39923095703125,53.33041763305664 M493.5951232910156,52.96022033691406 L493.6497802734375,53.004459381103516 L493.71429443359375,53.226806640625 L493.7528076171875,53.755714416503906 L493.7120361328125,54.67277145385742 L493.57806396484375,55.95279312133789 L493.3591003417969,57.494346618652344 L493.1115417480469,59.120521545410156 L492.88897705078125,60.639610290527344 L492.74017333984375,61.885108947753906 L492.6702575683594,62.730445861816406 L492.6734619140625,63.091514587402344 L492.74810791015625,62.932395935058594 L492.92047119140625,62.2421989440918 L493.22705078125,61.07909393310547 L493.6850891113281,59.57796859741211 L494.2987060546875,57.92208480834961 L495.07550048828125,56.296669006347656 L496.0447082519531,54.861106872558594 L497.207275390625,53.717529296875 L498.5164794921875,52.94960403442383 L499.84967041015625,52.624691009521484 L501.0865783691406,52.79811477661133 L502.12457275390625,53.49351501464844 L502.9239501953125,54.68352508544922 L503.45831298828125,56.26737976074219 L503.7342529296875,58.08739471435547 L503.7716369628906,59.95257568359375 L503.68267822265625,61.64707946777344 L503.59698486328125,62.986000061035156 L503.6278076171875,63.853572845458984 L503.7435302734375,64.28018188476562 L503.8786315917969,64.4012222290039 M514.2909545898438,56.055110931396484 L514.0983276367188,55.60305404663086 L513.6978759765625,54.94245529174805 L513.0347900390625,54.2654914855957 L512.1129760742188,53.87428665161133 L510.947021484375,53.919681549072266 L509.61083984375,54.44578170776367 L508.25079345703125,55.41456985473633 L507.0507507324219,56.73027420043945 L506.1794128417969,58.2393798828125 L505.7474670410156,59.745140075683594 L505.774169921875,61.03847122192383 L506.2288513183594,61.92131042480469 L507.07684326171875,62.27104187011719 L508.2445373535156,62.02275466918945 L509.63311767578125,61.20587158203125 L511.11322021484375,59.937931060791016 L512.510498046875,58.408592224121094 L513.6727294921875,56.85786819458008 L514.5297241210938,55.51155090332031 L515.06201171875,54.52241134643555 L515.3108520507812,53.97657775878906 L515.3662109375,53.90443420410156 L515.3063354492188,54.31193161010742 L515.1959838867188,55.20344543457031 L515.1041870117188,56.52867126464844 L515.0673828125,58.15181350708008 L515.0992431640625,59.89963912963867 L515.2174072265625,61.53272247314453 L515.4197998046875,62.83431625366211 L515.698974609375,63.67674255371094 L515.9674072265625,64.08688354492188 L516.1617431640625,64.19297790527344 M522.0918579101562,46.7584228515625 L522.1077880859375,46.81978225708008 L522.1448364257812,47.13468551635742 L522.16943359375,47.86890411376953 L522.1331176757812,49.111263275146484 L521.9861450195312,50.79065704345703 L521.7039184570312,52.74446487426758 L521.3419189453125,54.7620964050293 L520.972900390625,56.62660598754883 L520.6497802734375,58.16284942626953 L520.4200439453125,59.26511001586914 L520.2971801757812,59.87255096435547 L520.2879028320312,59.98133850097656 L520.444091796875,59.6198844909668 L520.806640625,58.82602310180664 L521.4268188476562,57.70392608642578 L522.3501586914062,56.41633605957031 L523.569091796875,55.13702392578125 L525.0322875976562,54.03973388671875 L526.647705078125,53.257286071777344 L528.2697143554688,52.86980056762695 L529.751708984375,52.92192840576172 L530.981201171875,53.41286849975586 L531.8682861328125,54.29446792602539 L532.3663940429688,55.481658935546875 L532.4530639648438,56.845619201660156 L532.1168212890625,58.23527526855469 L531.3643188476562,59.49760055541992 L530.2523193359375,60.510963439941406 L528.8685913085938,61.20299530029297 L527.3372802734375,61.54875946044922 L525.7922973632812,61.56656265258789 L524.3706665039062,61.27283477783203 L523.18798828125,60.73341751098633 L522.317138671875,60.048709869384766 L521.793701171875,59.4423713684082 L521.5582275390625,59.04236602783203 M550.1376953125,47.486236572265625 L550.1958618164062,47.525726318359375 L550.3040771484375,47.777496337890625 L550.4444580078125,48.40839385986328 L550.5762939453125,49.53041458129883 L550.6566162109375,51.110050201416016 L550.6629638671875,53.04148483276367 L550.611572265625,55.170379638671875 L550.5270385742188,57.33259582519531 L550.4365234375,59.34510040283203 L550.3641967773438,61.03657150268555 L550.316650390625,62.18705749511719 L550.2906494140625,62.78554916381836 M547.5841064453125,45.166587829589844 L547.9323120117188,45.06764602661133 L548.6492919921875,45.0 L549.7705688476562,45.07369613647461 L551.2242431640625,45.400970458984375 L552.9261474609375,46.020362854003906 L554.7474365234375,46.94219207763672 L556.5527954101562,48.1330680847168 L558.21728515625,49.56806945800781 L559.5979614257812,51.19255828857422 L560.59033203125,52.92780303955078 L561.111083984375,54.705448150634766 L561.099365234375,56.45271301269531 L560.548583984375,58.09061813354492 L559.5084838867188,59.56478500366211 L558.07080078125,60.80157470703125 L556.3436889648438,61.70915603637695 L554.50390625,62.24650192260742 L552.7257690429688,62.416290283203125 L551.3643188476562,62.3590087890625 L550.55859375,62.23306655883789 M560.227783203125,59.8770637512207 L560.6760864257812,59.71869659423828 L561.5528564453125,59.374847412109375 L562.8397216796875,58.8068733215332 L564.3631591796875,58.039451599121094 L565.962890625,57.12443542480469 L567.4832153320312,56.13380432128906 L568.794677734375,55.15092468261719 L569.7991333007812,54.26914596557617 L570.38916015625,53.535423278808594 L570.4949340820312,52.99747848510742 L570.0859985351562,52.70862579345703 L569.1752319335938,52.734195709228516 L567.8532104492188,53.15486526489258 L566.3247680664062,54.020912170410156 L564.8424682617188,55.26757049560547 L563.699951171875,56.77758026123047 L563.130126953125,58.38311004638672 L563.2633666992188,59.922447204589844 L564.1165771484375,61.28201675415039 L565.7337036132812,62.354244232177734 L567.9808959960938,63.05093765258789 L570.626708984375,63.353233337402344 L572.9200439453125,63.380611419677734 L574.4238891601562,63.28483581542969 " fill="none" stroke="black" stroke-linecap="round" stroke-width="2" /><path d="M0,0 M432.1298522949219,107.78902435302734 L432.1299133300781,107.75382232666016 L432.27044677734375,107.72828674316406 L432.67376708984375,107.73744201660156 L433.4517822265625,107.81414794921875 L434.6165771484375,107.9478530883789 L436.1005859375,108.1460952758789 L437.7606201171875,108.41127014160156 L439.450439453125,108.76447296142578 L440.9989013671875,109.19977569580078 L442.25787353515625,109.71761322021484 L443.0816650390625,110.28388977050781 L443.33953857421875,110.88722229003906 L442.94232177734375,111.52214050292969 L441.93011474609375,112.21344757080078 L440.4577331542969,112.93307495117188 L438.7995300292969,113.66415405273438 L437.2655944824219,114.36540222167969 L436.091796875,115.00101470947266 L435.405517578125,115.57069396972656 L435.26556396484375,116.1269302368164 L435.647705078125,116.67950439453125 L436.5249938964844,117.2627182006836 L437.8425598144531,117.89226531982422 L439.4587097167969,118.56133270263672 L441.18182373046875,119.275146484375 L442.80242919921875,120.03255462646484 L444.12188720703125,120.81108093261719 L445.01959228515625,121.58647918701172 L445.4410705566406,122.32732391357422 L445.345458984375,123.01084899902344 L444.7012023925781,123.61650085449219 L443.4819030761719,124.11354064941406 L441.7462463378906,124.48712921142578 L439.64190673828125,124.70514678955078 L437.40350341796875,124.74909210205078 L435.3175964355469,124.60215759277344 L433.6205139160156,124.27386474609375 L432.4370422363281,123.81624603271484 L431.7834777832031,123.39366912841797 L431.52728271484375,123.10502624511719 M449.14898681640625,114.04612731933594 L449.13671875,114.56245422363281 L449.1131896972656,115.548583984375 L449.04119873046875,116.97978210449219 L448.90484619140625,118.65293884277344 L448.69647216796875,120.39370727539062 L448.4822998046875,122.01122283935547 L448.3077087402344,123.35377502441406 L448.2345886230469,124.30194854736328 L448.24456787109375,124.74307250976562 L448.30169677734375,124.60627746582031 L448.3509216308594,123.87133026123047 L448.4074401855469,122.59844207763672 L448.500244140625,120.95079803466797 L448.6881103515625,119.13250732421875 L449.03216552734375,117.33952331542969 L449.56353759765625,115.72787475585938 L450.2901916503906,114.39706420898438 L451.2230529785156,113.43022155761719 L452.3338623046875,112.88417053222656 L453.6204528808594,112.79698944091797 L455.04937744140625,113.13512420654297 L456.5307922363281,113.78182220458984 L457.7405700683594,114.43607330322266 L458.51104736328125,114.9022216796875 M468.3843688964844,115.98396301269531 L468.1160888671875,115.753662109375 L467.5516662597656,115.42375946044922 L466.62969970703125,115.13307189941406 L465.3767395019531,115.08911895751953 L463.8660583496094,115.43773651123047 L462.2293701171875,116.24796295166016 L460.6539306640625,117.47602844238281 L459.3738708496094,119.0008544921875 L458.5747985839844,120.64244079589844 L458.3572998046875,122.18634796142578 L458.7294616699219,123.45374298095703 L459.6158142089844,124.28702545166016 L460.8988037109375,124.5649642944336 L462.4569396972656,124.21992492675781 L464.14556884765625,123.23320770263672 L465.83343505859375,121.65506744384766 L467.396240234375,119.60933685302734 L468.75,117.263916015625 L469.8600158691406,114.8055648803711 L470.70599365234375,112.42698669433594 L471.2802429199219,110.31562042236328 L471.614990234375,108.6074447631836 L471.74810791015625,107.38198852539062 L471.75244140625,106.69916534423828 L471.7008056640625,106.60651397705078 L471.6126403808594,107.15415954589844 L471.483642578125,108.39450073242188 L471.3083190917969,110.27804565429688 L471.10174560546875,112.6506118774414 L470.9268493652344,115.30097198486328 L470.86474609375,117.99714660644531 L471.01416015625,120.51148986816406 L471.41900634765625,122.64997863769531 L472.0493469238281,124.26611328125 L472.67205810546875,125.26165008544922 L473.1171875,125.72148132324219 M489.3419189453125,105.01151275634766 L489.40533447265625,105.25508117675781 L489.55682373046875,105.76854705810547 L489.8297119140625,106.6097640991211 L490.2275085449219,107.74000549316406 L490.7496032714844,109.1095962524414 L491.3915100097656,110.63400268554688 L492.1591796875,112.22265625 L493.0851745605469,113.71815490722656 L494.15771484375,114.96415710449219 L495.30975341796875,115.82051086425781 L496.26800537109375,116.272216796875 L496.8805847167969,116.41925048828125 M503.1910705566406,105.07687377929688 L503.204833984375,105.0 L503.17596435546875,105.05441284179688 L503.04498291015625,105.42028045654297 L502.7235412597656,106.27536010742188 L502.1613464355469,107.65436553955078 L501.3460998535156,109.52792358398438 L500.2802734375,111.7894058227539 L499.0115051269531,114.31600189208984 L497.61676025390625,116.96551513671875 L496.1771240234375,119.58876037597656 L494.7976989746094,122.03206634521484 L493.6335754394531,124.11433410644531 L492.8196716308594,125.65672302246094 L492.41845703125,126.56378173828125 L492.3323669433594,126.93815612792969 L492.4048767089844,126.98307800292969 M502.6542053222656,120.62773895263672 L502.90045166015625,120.67542266845703 L503.4231262207031,120.651123046875 L504.27789306640625,120.4515380859375 L505.4266052246094,119.97259521484375 L506.79913330078125,119.20368194580078 L508.2911376953125,118.18074035644531 L509.7663879394531,116.9849624633789 L511.0653381347656,115.71961212158203 L512.057373046875,114.49638366699219 L512.6259155273438,113.407470703125 L512.6890258789062,112.55517578125 L512.2246704101562,112.0295639038086 L511.24310302734375,111.93840026855469 L509.7889099121094,112.36744689941406 L508.017578125,113.34931182861328 L506.16534423828125,114.81754302978516 L504.52960205078125,116.6327133178711 L503.39141845703125,118.59471130371094 L502.9112854003906,120.52107238769531 L503.2115478515625,122.20669555664062 L504.250244140625,123.48674011230469 L505.86956787109375,124.26444244384766 L507.451416015625,124.60662078857422 L508.57806396484375,124.66670989990234 M521.917236328125,116.82926940917969 L521.654052734375,116.46570587158203 L521.1843872070312,115.92501068115234 L520.4982299804688,115.36090087890625 L519.6279296875,115.01371002197266 L518.5564575195312,115.0214614868164 L517.315673828125,115.48786163330078 L515.9822998046875,116.4124526977539 L514.7333374023438,117.71206665039062 L513.7644653320312,119.23384857177734 L513.23193359375,120.75483703613281 L513.2271728515625,122.06300354003906 L513.7520141601562,122.97505950927734 L514.7408447265625,123.37689971923828 L516.0806274414062,123.20808410644531 L517.6273803710938,122.49781799316406 L519.2073364257812,121.34093475341797 L520.6641235351562,119.89473724365234 L521.8549194335938,118.33656311035156 L522.716064453125,116.89131927490234 L523.23779296875,115.70840454101562 L523.4772338867188,114.89054870605469 L523.5118408203125,114.48389434814453 L523.4269409179688,114.52503967285156 L523.2664794921875,115.05117797851562 L523.0785522460938,116.12347412109375 L522.904541015625,117.66693115234375 L522.8098754882812,119.5219497680664 L522.89453125,121.42810821533203 L523.2139892578125,123.11187744140625 L523.7483520507812,124.37998962402344 L524.2913208007812,125.15440368652344 L524.6837158203125,125.49867248535156 M529.6932983398438,115.59501647949219 L529.6771240234375,115.8929443359375 L529.6474609375,116.55934143066406 L529.583251953125,117.65788269042969 L529.469970703125,119.09794616699219 L529.3028564453125,120.6968765258789 L529.124755859375,122.22251892089844 L528.985595703125,123.4742431640625 L528.9276123046875,124.30103302001953 L528.9539794921875,124.60971069335938 L529.04443359375,124.34530639648438 L529.1788330078125,123.48310089111328 L529.364501953125,122.07691192626953 L529.626220703125,120.31973266601562 L529.989990234375,118.45016479492188 L530.4888916015625,116.71240234375 L531.1436767578125,115.2731704711914 L531.970458984375,114.19532775878906 L532.9654541015625,113.47650909423828 L534.10595703125,113.10490417480469 L535.4022216796875,113.06764221191406 L536.8163452148438,113.32360076904297 L538.2756958007812,113.78874206542969 L539.46875,114.25595092773438 L540.2252807617188,114.58647918701172 M544.2257080078125,121.25975799560547 L544.3223876953125,121.33428192138672 L544.4588623046875,121.5822525024414 L544.5752563476562,122.12371826171875 L544.5587158203125,123.04390716552734 L544.31787109375,124.35521697998047 L543.800537109375,125.977783203125 L543.0108642578125,127.78336334228516 L542.0629272460938,129.57608032226562 L541.1353149414062,131.13587951660156 L540.39599609375,132.28321838378906 L539.94384765625,132.9456787109375 L539.7529907226562,133.20449829101562 M571.6884765625,108.58134460449219 L571.4758911132812,108.34941101074219 L571.0634765625,108.02424621582031 L570.3947143554688,107.70692443847656 L569.4344482421875,107.56126403808594 L568.1268310546875,107.68565368652344 L566.4852905273438,108.1825942993164 L564.588623046875,109.1214828491211 L562.584716796875,110.5372314453125 L560.6521606445312,112.39832305908203 L558.9456787109375,114.58908081054688 L557.6143188476562,116.94305419921875 L556.814208984375,119.26374816894531 L556.6838989257812,121.34832763671875 L557.310546875,123.0188980102539 L558.6744384765625,124.17223358154297 L560.67431640625,124.68509674072266 L563.0501098632812,124.55489349365234 L565.5146484375,123.8808822631836 L567.4818115234375,123.07099151611328 L568.6907348632812,122.43500518798828 M579.6983642578125,109.73699951171875 L579.49267578125,109.4019775390625 L579.047119140625,108.92247772216797 L578.2911376953125,108.44896697998047 L577.2471313476562,108.20623016357422 L575.9965209960938,108.29107666015625 L574.6875,108.72315216064453 L573.5197143554688,109.4626235961914 L572.7227172851562,110.44800567626953 L572.455078125,111.59654998779297 L572.8070678710938,112.8294677734375 L573.7724609375,114.0675048828125 L575.2291259765625,115.24683380126953 L576.9951171875,116.3504867553711 L578.8568115234375,117.37339782714844 L580.5780029296875,118.3095703125 L581.956298828125,119.16819763183594 L582.854248046875,119.9503173828125 L583.1669311523438,120.66170501708984 L582.8653564453125,121.32124328613281 L581.9869995117188,121.93280029296875 L580.61572265625,122.47115325927734 L578.9031982421875,122.90592956542969 L577.0748291015625,123.22523498535156 L575.3353881835938,123.41158294677734 L573.8701171875,123.47539520263672 L572.793701171875,123.4493408203125 L572.1461181640625,123.3858413696289 L571.8472900390625,123.32491302490234 M591.099365234375,110.0591049194336 L591.0396118164062,110.22781372070312 L590.8514404296875,110.67974853515625 L590.4710693359375,111.5212173461914 L589.8872680664062,112.7641372680664 L589.1572265625,114.35181427001953 L588.3757934570312,116.16747283935547 L587.6984252929688,118.10139465332031 L587.263427734375,120.01436614990234 L587.2177734375,121.77271270751953 L587.6785888671875,123.22925567626953 L588.7046508789062,124.28239440917969 L590.2678833007812,124.87736511230469 L592.2635498046875,125.03850555419922 L594.500244140625,124.8248062133789 L596.80712890625,124.34410095214844 L598.9843139648438,123.62213134765625 L600.8410034179688,122.7022476196289 L602.2384643554688,121.64808654785156 L603.0911254882812,120.73202514648438 L603.468017578125,120.11827850341797 M589.385498046875,116.37958526611328 L589.8966064453125,116.4033432006836 L590.9578857421875,116.3628921508789 L592.171142578125,116.27998352050781 L593.13818359375,116.17638397216797 M593.1266479492188,107.04322052001953 L593.179443359375,107.01924133300781 L593.4697875976562,107.00662231445312 L594.1458740234375,107.0213623046875 L595.369140625,107.06425476074219 L597.0965576171875,107.10479736328125 L599.1484375,107.11846160888672 L600.9271850585938,107.1028823852539 L602.0947875976562,107.07826232910156 " fill="none" stroke="black" stroke-linecap="round" stroke-width="2" /></svg>