<?xml version="1.0" encoding="utf-8" ?>
<svg baseProfile="full" height="100%" version="1.1" viewBox="0,0,1000,180" width="100%" xmlns="http://www.w3.org/2000/svg" xmlns:ev="http://www.w3.org/2001/xml-events" xmlns:xlink="http://www.w3.org/1999/xlink"><defs /><rect fill="white" height="180" width="1000" x="0" y="0" /><path d="M0,0 M466.4065246582031,45.58759307861328 L466.41717529296875,45.6572265625 L466.37603759765625,45.93349075317383 L466.23150634765625,46.571754455566406 L465.9262390136719,47.69100570678711 L465.4037170410156,49.30243682861328 L464.6447448730469,51.36210632324219 L463.6662902832031,53.76053237915039 L462.51019287109375,56.346675872802734 L461.30029296875,58.9380989074707 L460.180419921875,61.328311920166016 L459.2641296386719,63.29981994628906 L458.70697021484375,64.56271362304688 L458.58038330078125,64.93518829345703 L458.86566162109375,64.41108703613281 L459.3165283203125,63.504417419433594 L459.7109375,62.68857955932617 M466.3640441894531,46.131465911865234 L466.546630859375,45.713443756103516 L466.8280944824219,45.24944305419922 L467.17657470703125,45.0 L467.5301513671875,45.27207946777344 L467.90301513671875,46.13225555419922 L468.2870178222656,47.558509826660156 L468.6996765136719,49.443946838378906 L469.1220703125,51.68000411987305 L469.5486755371094,54.102012634277344 L469.9707336425781,56.52662658691406 L470.39019775390625,58.77140808105469 L470.7547912597656,60.66318130493164 L471.0127868652344,62.09535598754883 L471.1479797363281,62.98799133300781 L471.1838073730469,63.412113189697266 M463.57080078125,56.74579620361328 L463.76617431640625,56.62471008300781 L464.3203125,56.41529846191406 L465.3375549316406,56.14543533325195 L466.8515930175781,55.89423751831055 L468.7159423828125,55.71686553955078 L470.7059020996094,55.62790298461914 L472.3284606933594,55.60752868652344 L473.345458984375,55.6185417175293 M478.78948974609375,53.80400848388672 L478.8124084472656,54.1385498046875 L478.8300476074219,54.85188293457031 L478.814697265625,55.99348449707031 L478.7406005859375,57.4749870300293 L478.5970153808594,59.16361999511719 L478.41864013671875,60.85396957397461 L478.2508544921875,62.362483978271484 L478.1318664550781,63.52119827270508 L478.0841979980469,64.19175720214844 L478.11932373046875,64.28849792480469 L478.20684814453125,63.78409194946289 L478.3518371582031,62.69731903076172 L478.55841064453125,61.16547775268555 L478.83892822265625,59.38972854614258 L479.232177734375,57.5842170715332 L479.7950134277344,55.93877410888672 L480.5383605957031,54.58160400390625 L481.4619445800781,53.57051086425781 L482.5328674316406,52.958229064941406 L483.7322998046875,52.79960632324219 L485.0157775878906,53.07772445678711 L486.3232727050781,53.69826126098633 L487.379150390625,54.35793685913086 L488.0409240722656,54.833980560302734 M491.53155517578125,54.351776123046875 L491.55230712890625,54.55469512939453 L491.5412902832031,55.05961608886719 L491.45843505859375,55.96847152709961 L491.275146484375,57.26249313354492 L491.02117919921875,58.82490539550781 L490.7632751464844,60.4571418762207 L490.5548095703125,61.93708038330078 L490.4290466308594,63.06214904785156 L490.39697265625,63.69363021850586 L490.4654235839844,63.74742126464844 L490.6719665527344,63.21275329589844 L491.0447998046875,62.12765884399414 L491.5908203125,60.63099670410156 L492.3031921386719,58.918338775634766 L493.1719970703125,57.21424865722656 L494.1847839355469,55.72358703613281 L495.3358154296875,54.597267150878906 L496.5477600097656,53.9128532409668 L497.7294616699219,53.728599548339844 L498.7764587402344,54.055389404296875 L499.6170959472656,54.87956237792969 L500.20294189453125,56.14041519165039 L500.5404968261719,57.71854019165039 L500.6585998535156,59.44662857055664 L500.6468505859375,61.114688873291016 L500.6085205078125,62.52226638793945 L500.59686279296875,63.47753143310547 L500.6145324707031,63.97079849243164 M512.2984008789062,55.850242614746094 L512.2303466796875,55.50577163696289 L512.0122680664062,55.010032653808594 L511.5552062988281,54.52238082885742 L510.80743408203125,54.286529541015625 L509.78460693359375,54.433387756347656 L508.5808410644531,55.031471252441406 L507.333984375,56.048439025878906 L506.21148681640625,57.40005111694336 L505.374755859375,58.94075012207031 L504.9233703613281,60.466796875 L504.9039611816406,61.77480697631836 L505.31695556640625,62.69239807128906 L506.09942626953125,63.0910758972168 L507.15740966796875,62.91316604614258 L508.4068298339844,62.1884880065918 L509.71539306640625,60.99500274658203 L510.9584655761719,59.47443771362305 L512.0316162109375,57.81294250488281 L512.8443603515625,56.217552185058594 L513.364990234375,54.862342834472656 L513.6348266601562,53.87366485595703 L513.7042846679688,53.320804595947266 L513.638427734375,53.247493743896484 L513.4805908203125,53.69186782836914 L513.2708740234375,54.694053649902344 L513.0654296875,56.19850540161133 L512.9265747070312,58.057655334472656 L512.9443359375,60.06367111206055 L513.1680297851562,61.958587646484375 L513.5704345703125,63.53056335449219 L513.9871215820312,64.591552734375 L514.2922973632812,65.13690948486328 M519.8863525390625,46.567420959472656 L519.9102783203125,46.89869689941406 L519.9283447265625,47.636817932128906 L519.9197387695312,48.865116119384766 L519.860107421875,50.523406982421875 L519.7462768554688,52.497886657714844 L519.5980834960938,54.61355972290039 L519.4506225585938,56.655128479003906 L519.3458251953125,58.437660217285156 L519.3141479492188,59.818546295166016 L519.3671875,60.71601104736328 L519.4971313476562,61.1175537109375 L519.7073364257812,61.03893280029297 L520.040283203125,60.50371170043945 L520.5457763671875,59.58197021484375 L521.2762451171875,58.40218734741211 L522.2542724609375,57.13817596435547 L523.44384765625,55.973697662353516 L524.7723999023438,55.05537414550781 L526.1680297851562,54.48496627807617 L527.5541381835938,54.32229995727539 L528.86669921875,54.59150314331055 L530.029052734375,55.281002044677734 L530.9436645507812,56.32679748535156 L531.511962890625,57.618133544921875 L531.6583862304688,59.01549530029297 L531.3541259765625,60.362247467041016 L530.6158447265625,61.51007080078125 L529.502197265625,62.35088348388672 L528.1099243164062,62.81930923461914 L526.565673828125,62.9033203125 L524.9944458007812,62.6527214050293 L523.5365600585938,62.12141799926758 L522.3226318359375,61.4091911315918 L521.4429321289062,60.63314437866211 L520.9295654296875,59.99832534790039 L520.7169799804688,59.602325439453125 M548.8736572265625,46.88357925415039 L548.916748046875,46.96957015991211 L548.9940185546875,47.33707046508789 L549.0880737304688,48.154998779296875 L549.154296875,49.5042724609375 L549.1486206054688,51.31814956665039 L549.0631713867188,53.45414733886719 L548.9232177734375,55.7241325378418 L548.7681274414062,57.90674591064453 L548.6491088867188,59.7725715637207 L548.5926513671875,61.14777374267578 L548.5853881835938,61.9564323425293 L548.6027221679688,62.29812240600586 M545.5972900390625,45.908485412597656 L545.861328125,45.734962463378906 L546.4500732421875,45.552303314208984 L547.4376220703125,45.487327575683594 L548.7935791015625,45.68656921386719 L550.4454345703125,46.18214797973633 L552.2664794921875,46.977516174316406 L554.0958251953125,48.04094314575195 L555.7705688476562,49.336727142333984 L557.16064453125,50.827362060546875 L558.1630859375,52.4528923034668 L558.7086181640625,54.140716552734375 L558.7435302734375,55.82402038574219 L558.236083984375,57.44453811645508 L557.209716796875,58.93557357788086 L555.7726440429688,60.252899169921875 L554.048828125,61.305946350097656 L552.219482421875,62.01586151123047 L550.473388671875,62.34724044799805 L549.1466064453125,62.407588958740234 L548.364013671875,62.333984375 M560.9854736328125,58.69993591308594 L561.7534790039062,58.69599914550781 L563.0682983398438,58.63446807861328 L564.8057861328125,58.45303726196289 L566.6334838867188,58.09714889526367 L568.3758544921875,57.56169509887695 L569.900390625,56.885520935058594 L571.1373901367188,56.12122344970703 L572.0108032226562,55.327796936035156 L572.4560546875,54.55778503417969 L572.4086303710938,53.876522064208984 L571.8292236328125,53.37939453125 L570.7454833984375,53.162452697753906 L569.2711181640625,53.311439514160156 L567.5948486328125,53.861724853515625 L565.9595947265625,54.797515869140625 L564.59814453125,56.0522575378418 L563.716552734375,57.524749755859375 L563.4672241210938,59.097774505615234 L563.9224853515625,60.63982391357422 L565.1795654296875,61.9871940612793 L567.172607421875,63.002017974853516 L569.673583984375,63.59754180908203 L571.915283203125,63.8361701965332 L573.419189453125,63.861785888671875 " fill="none" stroke="black" stroke-linecap="round" stroke-width="2" /><path d="M0,0 M437.92138671875,108.37420654296875 L437.844970703125,108.21955108642578 L437.882080078125,107.95525360107422 L438.1864929199219,107.58319091796875 L438.9268798828125,107.14411926269531 L440.1332092285156,106.65071868896484 L441.7674865722656,106.17793273925781 L443.68450927734375,105.81726837158203 L445.71282958984375,105.6801986694336 L447.62091064453125,105.82044982910156 L449.1917724609375,106.22280883789062 L450.2164611816406,106.82626342773438 L450.5435791015625,107.5597152709961 L450.1160583496094,108.38200378417969 L449.005859375,109.25898742675781 L447.43316650390625,110.1498794555664 L445.72076416015625,110.98361206054688 L444.20733642578125,111.70556640625 L443.140869140625,112.27458953857422 L442.6675720214844,112.71454620361328 L442.8046875,113.07147979736328 L443.52777099609375,113.42430114746094 L444.7626037597656,113.83011627197266 L446.3792724609375,114.34425354003906 L448.1849670410156,114.9962387084961 L449.96685791015625,115.78770446777344 L451.5247802734375,116.6953125 L452.7270202636719,117.68465423583984 L453.4972839355469,118.6893081665039 L453.80023193359375,119.64822387695312 L453.6217346191406,120.50458526611328 L452.93695068359375,121.19218444824219 L451.7476806640625,121.66905975341797 L450.0664978027344,121.913330078125 L447.9435729980469,121.90731048583984 L445.51556396484375,121.67146301269531 L442.96319580078125,121.24761199951172 L440.4717712402344,120.67386627197266 L438.2445983886719,119.99623107910156 L436.3960876464844,119.25372314453125 L435.0627136230469,118.44786071777344 L434.34783935546875,117.618896484375 L434.2575988769531,116.82762908935547 L434.5162658691406,116.21990203857422 L434.8602294921875,115.85965728759766 M455.81243896484375,112.39262390136719 L455.7396545410156,112.6155776977539 L455.63409423828125,113.15311431884766 L455.5032043457031,114.08895111083984 L455.3623962402344,115.40694427490234 L455.2068786621094,117.03092956542969 L455.0388488769531,118.79436492919922 L454.88519287109375,120.47984313964844 L454.7907409667969,121.89642333984375 L454.76812744140625,122.88003540039062 L454.81134033203125,123.33096313476562 L454.9101257324219,123.23269653320312 L455.057861328125,122.58866882324219 L455.2845153808594,121.436279296875 L455.6305847167969,119.91963195800781 L456.11370849609375,118.2153091430664 L456.75079345703125,116.50141906738281 L457.5420227050781,114.93229675292969 L458.4869079589844,113.61076354980469 L459.5736083984375,112.58629608154297 L460.82513427734375,111.94987487792969 L462.19696044921875,111.7209701538086 L463.62255859375,111.85346984863281 L464.78558349609375,112.13737487792969 L465.5249938964844,112.399169921875 M475.8576354980469,114.77940368652344 L475.6560974121094,114.51044464111328 L475.2269287109375,114.10195922851562 L474.4974365234375,113.65471649169922 L473.4537658691406,113.36241912841797 L472.0927734375,113.35507202148438 L470.49700927734375,113.7304916381836 L468.81256103515625,114.52263641357422 L467.21685791015625,115.7032241821289 L465.89208984375,117.15470123291016 L464.9979553222656,118.71450805664062 L464.6339416503906,120.19446563720703 L464.83343505859375,121.40646362304688 L465.5751647949219,122.2015380859375 L466.773193359375,122.47085571289062 L468.30426025390625,122.14727020263672 L470.0144958496094,121.2216567993164 L471.75042724609375,119.75189208984375 L473.37506103515625,117.84536743164062 L474.78594970703125,115.65889739990234 L475.9212951660156,113.37995147705078 L476.75433349609375,111.2047119140625 L477.2864685058594,109.308837890625 L477.5794372558594,107.82797241210938 L477.7061767578125,106.84894561767578 L477.7283935546875,106.41572570800781 L477.67877197265625,106.5782470703125 L477.5560302734375,107.38092041015625 L477.36468505859375,108.825927734375 L477.1347961425781,110.81193542480469 L476.91241455078125,113.14955139160156 L476.7679443359375,115.58216094970703 L476.78607177734375,117.90229034423828 L477.0029602050781,119.92837524414062 L477.416259765625,121.55127716064453 L477.8504333496094,122.62849426269531 L478.17047119140625,123.18807983398438 M494.90301513671875,105.0 L495.01751708984375,105.278564453125 L495.2449951171875,105.84642028808594 L495.5954284667969,106.73017883300781 L496.03619384765625,107.84764862060547 L496.574951171875,109.12049102783203 L497.1759033203125,110.41352844238281 L497.8082275390625,111.61396026611328 L498.46331787109375,112.56555938720703 L499.1074523925781,113.14532470703125 L499.70611572265625,113.29723358154297 L500.1722412109375,113.18655395507812 L500.45489501953125,112.98877716064453 M504.833984375,105.50252532958984 L504.72528076171875,105.63336181640625 L504.4653015136719,106.01575469970703 L503.994384765625,106.77686309814453 L503.2716064453125,107.95610809326172 L502.28338623046875,109.53511810302734 L501.0488586425781,111.43562316894531 L499.6316833496094,113.56576538085938 L498.1108703613281,115.83097839355469 L496.63323974609375,118.07403564453125 L495.3362731933594,120.0835189819336 L494.42230224609375,121.53933715820312 L493.92803955078125,122.3470458984375 M505.1036071777344,117.61074829101562 L505.4166564941406,117.69204711914062 L506.05450439453125,117.72882080078125 L507.0527648925781,117.61683654785156 L508.3200988769531,117.25094604492188 L509.755859375,116.6167984008789 L511.2083740234375,115.74374389648438 L512.5198974609375,114.7147216796875 L513.5419311523438,113.61775970458984 L514.15966796875,112.55291748046875 L514.2872924804688,111.63612365722656 L513.91162109375,110.98326110839844 L513.06103515625,110.6982650756836 L511.81500244140625,110.85607147216797 L510.30517578125,111.47815704345703 L508.70556640625,112.5198974609375 L507.20172119140625,113.8985366821289 L505.9825134277344,115.48774719238281 L505.20916748046875,117.15956115722656 L504.97705078125,118.78314208984375 L505.41180419921875,120.19470977783203 L506.5140380859375,121.24676513671875 L508.1531066894531,121.8563232421875 L509.73162841796875,122.09003448486328 L510.84661865234375,122.09989929199219 M521.8909912109375,114.37902069091797 L521.5751953125,114.09437561035156 L520.9901123046875,113.7613754272461 L520.1209716796875,113.56098937988281 L519.0394287109375,113.72525024414062 L517.8114013671875,114.33113098144531 L516.5352172851562,115.35543060302734 L515.37158203125,116.67900848388672 L514.499267578125,118.13338470458984 L514.0534057617188,119.51115417480469 L514.0772705078125,120.61116790771484 L514.5655517578125,121.28944396972656 L515.445556640625,121.4559555053711 L516.6420288085938,121.08013916015625 L518.0360717773438,120.19087219238281 L519.5029296875,118.89451599121094 L520.8710327148438,117.3453140258789 L522.0215454101562,115.77298736572266 L522.8766479492188,114.38751983642578 L523.4234619140625,113.32455444335938 L523.6943969726562,112.68206787109375 L523.7454833984375,112.51079559326172 L523.6209106445312,112.8298110961914 L523.3714599609375,113.6660385131836 L523.0780029296875,115.0193862915039 L522.8230590820312,116.73148345947266 L522.6941528320312,118.58169555664062 L522.6777954101562,120.08894348144531 L522.7257690429688,121.01277160644531 M529.4871826171875,113.3582763671875 L529.4797973632812,113.42469024658203 L529.4415283203125,113.72906494140625 L529.3262939453125,114.4157943725586 L529.1135864257812,115.54524230957031 L528.8207397460938,117.00440216064453 L528.5140380859375,118.5698013305664 L528.2626953125,119.9818344116211 L528.1361083984375,121.0314712524414 L528.1270141601562,121.55918884277344 L528.24755859375,121.49205017089844 L528.5123901367188,120.8075180053711 L528.9487915039062,119.5604019165039 L529.576416015625,117.9288101196289 L530.38671875,116.1684799194336 L531.3030395507812,114.5157241821289 L532.3017578125,113.17963409423828 L533.3265991210938,112.25752258300781 L534.3213500976562,111.75064849853516 L535.1046142578125,111.55815887451172 L535.5891723632812,111.54412078857422 M540.08251953125,121.48870849609375 L540.0687866210938,121.9645767211914 L539.9418334960938,122.90117645263672 L539.6168212890625,124.29447174072266 L539.0595703125,125.97975158691406 L538.3532104492188,127.76148986816406 L537.6121215820312,129.4027557373047 L537.03662109375,130.60562133789062 L536.7035522460938,131.2830352783203 M567.6836547851562,108.18058776855469 L567.5945434570312,107.80593872070312 L567.359619140625,107.23316192626953 L566.89208984375,106.58537292480469 L566.12646484375,106.06280517578125 L565.035888671875,105.74757385253906 L563.6513671875,105.68141174316406 L562.061767578125,105.88379669189453 L560.39599609375,106.3858871459961 L558.7554321289062,107.23223114013672 L557.2120971679688,108.45297241210938 L555.8294677734375,110.05084991455078 L554.6849975585938,111.95761108398438 L553.8758544921875,114.05512237548828 L553.5271606445312,116.17608642578125 L553.73388671875,118.14080047607422 L554.52099609375,119.78008270263672 L555.8654174804688,120.96489715576172 L557.6751708984375,121.61026000976562 L559.7867431640625,121.71836853027344 L562.0831298828125,121.28072357177734 L564.399169921875,120.3737564086914 L566.54833984375,119.13027954101562 L568.1666870117188,117.97689056396484 L569.1200561523438,117.18000793457031 M578.021240234375,109.6538314819336 L577.92626953125,109.22064971923828 L577.6610717773438,108.55071258544922 L577.1358642578125,107.78207397460938 L576.302978515625,107.1496810913086 L575.159912109375,106.74967956542969 L573.7943725585938,106.648681640625 L572.3768310546875,106.85419464111328 L571.1205444335938,107.35845947265625 L570.2308349609375,108.12650299072266 L569.8676147460938,109.09761047363281 L570.0787353515625,110.18924713134766 L570.8458862304688,111.3571548461914 L572.07958984375,112.56110382080078 L573.630859375,113.76407623291016 L575.2935180664062,114.92975616455078 L576.85595703125,116.02420806884766 L578.0944213867188,117.00225067138672 L578.850341796875,117.86217498779297 L579.0350952148438,118.6096420288086 L578.6251220703125,119.24591064453125 L577.659423828125,119.76351165771484 L576.25244140625,120.1457748413086 L574.5558471679688,120.36613464355469 L572.7674560546875,120.42891693115234 L571.0819091796875,120.3578109741211 L569.6387939453125,120.18902587890625 L568.600830078125,119.93289184570312 L568.068603515625,119.60011291503906 L568.0498046875,119.20122528076172 L568.31494140625,118.84471130371094 L568.6283569335938,118.5999755859375 M587.74072265625,106.05265808105469 L587.6439819335938,106.31188201904297 L587.3991088867188,106.90699005126953 L586.9301147460938,107.92546844482422 L586.2162475585938,109.34168243408203 L585.2969970703125,111.08860778808594 L584.2842407226562,113.05638122558594 L583.3572998046875,115.11659240722656 L582.7215576171875,117.12262725830078 L582.5384521484375,118.93135070800781 L582.9172973632812,120.39625549316406 L583.883056640625,121.42147064208984 L585.37841796875,121.97018432617188 L587.2803344726562,122.07334899902344 L589.41162109375,121.82079315185547 L591.5830688476562,121.34476470947266 L593.5657958984375,120.70866394042969 L595.1439819335938,119.95783233642578 L596.1785888671875,119.12628173828125 L596.6932373046875,118.40889739990234 L596.8375244140625,117.92549896240234 M585.5598754882812,112.83404541015625 L586.1578369140625,112.72441864013672 L587.3010864257812,112.50418853759766 L588.9410400390625,112.16553497314453 L590.8106079101562,111.73783111572266 L592.6402587890625,111.25450134277344 L594.1590576171875,110.76123046875 L595.1617431640625,110.36581420898438 L595.6627197265625,110.12077331542969 " fill="none" stroke="black" stroke-linecap="round" stroke-width="2" /></svg>