<?xml version="1.0" encoding="utf-8" ?>
<svg baseProfile="full" height="100%" version="1.1" viewBox="0,0,1000,180" width="100%" xmlns="http://www.w3.org/2000/svg" xmlns:ev="http://www.w3.org/2001/xml-events" xmlns:xlink="http://www.w3.org/1999/xlink"><defs /><rect fill="white" height="180" width="1000" x="0" y="0" /><path d="M0,0 M467.052001953125,46.54371643066406 L467.02166748046875,46.817874908447266 L466.90228271484375,47.49202346801758 L466.62689208984375,48.68482208251953 L466.1625671386719,50.39568328857422 L465.5008544921875,52.51878356933594 L464.6909484863281,54.903621673583984 L463.8206787109375,57.38715744018555 L462.9969177246094,59.786338806152344 L462.31787109375,61.88220977783203 L461.8597412109375,63.49730682373047 L461.61517333984375,64.49494171142578 L461.52838134765625,64.94882202148438 M467.6593017578125,46.879905700683594 L467.82794189453125,47.06379699707031 L468.1202697753906,47.562808990478516 L468.51409912109375,48.492218017578125 L468.9468078613281,49.85081100463867 L469.4056396484375,51.54793167114258 L469.8938293457031,53.44139862060547 L470.4190368652344,55.385093688964844 L471.0027770996094,57.29691696166992 L471.6210021972656,59.08010482788086 L472.2248229980469,60.638710021972656 L472.6920471191406,61.76276397705078 L472.9730224609375,62.39893341064453 M464.4537658691406,55.86662673950195 L464.86187744140625,55.89455032348633 L465.7502746582031,55.90113067626953 L467.1689147949219,55.84145736694336 L469.04266357421875,55.67866516113281 L471.1893310546875,55.43540954589844 L473.3602600097656,55.171321868896484 L475.0716552734375,54.96669387817383 L476.1160583496094,54.85398483276367 M480.7321472167969,52.77412033081055 L480.6906433105469,53.21888732910156 L480.6343994140625,54.09572982788086 L480.5594787597656,55.40399169921875 L480.481689453125,56.99415588378906 L480.4075622558594,58.70469665527344 L480.3462829589844,60.33271408081055 L480.3097229003906,61.70815658569336 L480.30133056640625,62.688106536865234 L480.2923583984375,63.14662170410156 L480.260009765625,63.02508544921875 L480.1915283203125,62.308998107910156 L480.122314453125,61.061302185058594 L480.1040954589844,59.44675827026367 L480.22161865234375,57.665958404541016 L480.55316162109375,55.90515899658203 L481.14617919921875,54.312747955322266 L482.0090026855469,52.9759521484375 L483.12835693359375,51.95165252685547 L484.4234619140625,51.27099609375 L485.842529296875,50.95249938964844 L487.28216552734375,50.971012115478516 L488.6338806152344,51.254913330078125 L489.65582275390625,51.60593795776367 L490.2622375488281,51.882171630859375 M491.54974365234375,51.300384521484375 L491.4331970214844,51.699153900146484 L491.2132873535156,52.49493408203125 L490.89715576171875,53.71360778808594 L490.54449462890625,55.22657012939453 L490.20989990234375,56.88944625854492 L489.96026611328125,58.516624450683594 L489.836181640625,59.93105697631836 L489.83892822265625,60.96476745605469 L489.95556640625,61.506168365478516 L490.1769714355469,61.493133544921875 L490.5100402832031,60.91791534423828 L490.9889831542969,59.82795333862305 L491.63226318359375,58.35743713378906 L492.4574890136719,56.68832778930664 L493.4656677246094,55.03718185424805 L494.6336364746094,53.595951080322266 L495.9100646972656,52.50029373168945 L497.21331787109375,51.83301544189453 L498.4331970214844,51.648895263671875 L499.49066162109375,51.97262191772461 L500.31243896484375,52.80149841308594 L500.85821533203125,54.07831573486328 L501.11431884765625,55.696773529052734 L501.10888671875,57.516849517822266 L500.9200134277344,59.342002868652344 L500.67230224609375,60.9850959777832 L500.4707946777344,62.17407989501953 L500.36279296875,62.83723449707031 M511.8738708496094,55.007362365722656 L511.7472839355469,54.64714431762695 L511.4580383300781,54.15798568725586 L510.94775390625,53.71628189086914 L510.19403076171875,53.579219818115234 L509.20562744140625,53.85737228393555 L508.04156494140625,54.589027404785156 L506.8547668457031,55.72871017456055 L505.8194885253906,57.183692932128906 L505.11328125,58.79266357421875 L504.8533630371094,60.35832214355469 L505.0668640136719,61.67437744140625 L505.70196533203125,62.567543029785156 L506.68096923828125,62.92306137084961 L507.8736572265625,62.6983642578125 L509.1512451171875,61.91617965698242 L510.38720703125,60.66983413696289 L511.46527099609375,59.10561752319336 L512.303955078125,57.41732406616211 L512.8897705078125,55.82786560058594 L513.241455078125,54.51040267944336 L513.4057006835938,53.575679779052734 L513.4428100585938,53.09556579589844 L513.401123046875,53.12262725830078 L513.3133544921875,53.70246505737305 L513.210205078125,54.87308120727539 L513.127197265625,56.534873962402344 L513.1014404296875,58.4898567199707 L513.2072143554688,60.4622917175293 L513.493408203125,62.173824310302734 L513.963623046875,63.42432403564453 L514.4404296875,64.15838623046875 L514.792236328125,64.46463012695312 M520.8603515625,46.555118560791016 L520.8920288085938,46.62062072753906 L520.927001953125,46.903079986572266 L520.9511108398438,47.54749298095703 L520.9351196289062,48.63649368286133 L520.8648681640625,50.15003967285156 L520.7280883789062,52.005001068115234 L520.5252685546875,54.06087112426758 L520.2905883789062,56.1573486328125 L520.0830078125,58.107906341552734 L519.96533203125,59.73799514770508 L519.9752197265625,60.895835876464844 L520.109375,61.48691940307617 L520.331298828125,61.469444274902344 L520.6322021484375,60.860904693603516 L521.0297241210938,59.73777389526367 L521.581787109375,58.26780319213867 L522.3467407226562,56.64591979980469 L523.3408813476562,55.08161163330078 L524.513427734375,53.75276184082031 L525.7864990234375,52.78970718383789 L527.0708618164062,52.28549575805664 L528.28369140625,52.29598617553711 L529.36328125,52.83098602294922 L530.2412719726562,53.844757080078125 L530.8508911132812,55.2325325012207 L531.1527709960938,56.83797073364258 L531.1356201171875,58.464935302734375 L530.8042602539062,59.924781799316406 L530.1563720703125,61.071170806884766 L529.1911010742188,61.81482696533203 L527.9493408203125,62.16351318359375 L526.5418701171875,62.140052795410156 L525.1583862304688,61.799861907958984 L524.002685546875,61.24845886230469 L523.237060546875,60.71167755126953 L522.85986328125,60.32971954345703 M548.7485961914062,46.14369583129883 L548.6431884765625,46.549537658691406 L548.46337890625,47.390079498291016 L548.2173461914062,48.719444274902344 L547.9357299804688,50.461822509765625 L547.6250610351562,52.525779724121094 L547.2765502929688,54.7557373046875 L546.9360961914062,56.99555206298828 L546.64697265625,59.00587463378906 L546.4561157226562,60.55989456176758 L546.39013671875,61.524993896484375 L546.4099731445312,61.96238708496094 L546.451171875,62.05059814453125 M547.0924072265625,45.731689453125 L547.2462768554688,45.481754302978516 L547.6550903320312,45.195194244384766 L548.3935546875,45.0 L549.4642944335938,45.05957794189453 L550.7966918945312,45.3900146484375 L552.2877197265625,46.00185012817383 L553.821533203125,46.88581848144531 L555.2946166992188,48.05654525756836 L556.5880126953125,49.49210739135742 L557.593017578125,51.156707763671875 L558.2008056640625,52.96714782714844 L558.3504028320312,54.840938568115234 L558.0349731445312,56.6760368347168 L557.2928466796875,58.37698745727539 L556.2079467773438,59.84641647338867 L554.8659057617188,61.01548385620117 L553.3319091796875,61.81193161010742 L551.6954345703125,62.21651077270508 L550.0718383789062,62.24797058105469 L548.6088256835938,61.92094039916992 L547.4678955078125,61.29582214355469 L546.7425537109375,60.479305267333984 L546.3927001953125,59.73439025878906 L546.2972412109375,59.22918701171875 M558.4806518554688,59.17676544189453 L558.7843627929688,59.233299255371094 L559.3817138671875,59.23452377319336 L560.2890014648438,59.09059524536133 L561.4158935546875,58.71275329589844 L562.6559448242188,58.08555221557617 L563.8983764648438,57.251197814941406 L565.0147705078125,56.27747344970703 L565.8901977539062,55.226593017578125 L566.4594116210938,54.18370819091797 L566.674560546875,53.23000717163086 L566.5137939453125,52.47014617919922 L565.9873046875,52.02312088012695 L565.1065673828125,51.98808670043945 L563.9483642578125,52.43040466308594 L562.6788940429688,53.358428955078125 L561.5106201171875,54.692352294921875 L560.7012939453125,56.30439758300781 L560.4696044921875,58.02830123901367 L560.9176635742188,59.67934036254883 L562.1099853515625,61.06796646118164 L563.9337768554688,62.04689407348633 L566.143798828125,62.543121337890625 L568.0782470703125,62.67509841918945 L569.3517456054688,62.621070861816406 " fill="none" stroke="black" stroke-linecap="round" stroke-width="2" /><path d="M0,0 M438.06219482421875,110.75670623779297 L438.02789306640625,110.63365936279297 L438.1465759277344,110.47470092773438 L438.5702209472656,110.31024169921875 L439.439208984375,110.18218231201172 L440.7458801269531,110.07086181640625 L442.41644287109375,109.99288177490234 L444.3277282714844,109.99703979492188 L446.309326171875,110.13858795166016 L448.1713562011719,110.44242095947266 L449.7336730957031,110.92009735107422 L450.78985595703125,111.56285858154297 L451.17645263671875,112.37403869628906 L450.8157043457031,113.34268188476562 L449.7493896484375,114.4206314086914 L448.20013427734375,115.50557708740234 L446.51416015625,116.48892974853516 L445.0435485839844,117.27999114990234 L444.0718688964844,117.8587417602539 L443.7410888671875,118.24472045898438 L444.086669921875,118.51588439941406 L445.08123779296875,118.74806213378906 L446.629150390625,119.01777648925781 L448.54571533203125,119.38814544677734 L450.5880126953125,119.91384887695312 L452.4687805175781,120.61927032470703 L453.93743896484375,121.51296997070312 L454.8502502441406,122.55371856689453 L455.1502685546875,123.66641998291016 L454.8458251953125,124.76546478271484 L453.9720153808594,125.76256561279297 L452.5697937011719,126.59973907470703 L450.7039794921875,127.24275970458984 L448.484619140625,127.66221618652344 L446.0692138671875,127.82914733886719 L443.6747741699219,127.76441955566406 L441.5217590332031,127.45447540283203 L439.80224609375,126.93408203125 L438.6423645019531,126.27815246582031 L438.02142333984375,125.69078826904297 L437.7923278808594,125.28929138183594 M457.89971923828125,117.02108764648438 L457.90667724609375,117.05530548095703 L457.92266845703125,117.25343322753906 L457.93829345703125,117.7374038696289 L457.94085693359375,118.59976196289062 L457.91387939453125,119.84455871582031 L457.8366394042969,121.40453338623047 L457.72088623046875,123.15762329101562 L457.5943603515625,124.92009735107422 L457.48919677734375,126.49008178710938 L457.4365234375,127.6963882446289 L457.43756103515625,128.4049072265625 L457.4617614746094,128.5366668701172 L457.5010681152344,128.08444213867188 L457.5750732421875,127.0782470703125 L457.71441650390625,125.62104797363281 L457.9691467285156,123.9031982421875 L458.36358642578125,122.10195922851562 L458.92047119140625,120.39033508300781 L459.6412048339844,118.8926773071289 L460.57415771484375,117.70909881591797 L461.7007141113281,116.90771484375 L462.970947265625,116.52896881103516 L464.05743408203125,116.44497680664062 L464.77734375,116.51051330566406 M475.62872314453125,120.10334777832031 L475.4708251953125,119.81666564941406 L475.132080078125,119.38063049316406 L474.54180908203125,118.90315246582031 L473.6797180175781,118.58623504638672 L472.526611328125,118.56764221191406 L471.1237487792969,118.9288558959961 L469.60089111328125,119.69945526123047 L468.14306640625,120.83970642089844 L466.9533386230469,122.23712158203125 L466.2237548828125,123.74347686767578 L466.04815673828125,125.1749267578125 L466.4251708984375,126.33642578125 L467.3000793457031,127.06226348876953 L468.57366943359375,127.21868133544922 L470.13970947265625,126.75286865234375 L471.8805236816406,125.6993179321289 L473.6481018066406,124.14891052246094 L475.26690673828125,122.24309539794922 L476.60528564453125,120.13715362548828 L477.60626220703125,117.98062896728516 L478.2746887207031,115.93303680419922 L478.6571960449219,114.15187072753906 L478.83856201171875,112.75115966796875 L478.8677062988281,111.79988861083984 L478.8108215332031,111.3403091430664 L478.72088623046875,111.39443969726562 L478.60284423828125,111.99566650390625 L478.44427490234375,113.1922836303711 L478.2596130371094,114.9372329711914 L478.0514221191406,117.08915710449219 L477.87506103515625,119.46136474609375 L477.798583984375,121.84749603271484 L477.851806640625,124.03340911865234 L478.0396728515625,125.87388610839844 L478.2664794921875,127.14276123046875 L478.4426574707031,127.81779479980469 M495.523193359375,107.6314468383789 L495.5128173828125,107.99454498291016 L495.4908447265625,108.70257568359375 L495.4679260253906,109.75914764404297 L495.4681091308594,111.02921295166016 L495.5365905761719,112.39741516113281 L495.70074462890625,113.71932220458984 L495.99169921875,114.88569641113281 L496.44073486328125,115.77558898925781 L497.0837707519531,116.2663803100586 L497.94793701171875,116.2401123046875 L499.0576171875,115.64329528808594 L500.3887939453125,114.501220703125 L501.86260986328125,112.93682098388672 L503.373046875,111.14350891113281 L504.8039245605469,109.336669921875 L506.0397644042969,107.71879577636719 L507.00885009765625,106.4424819946289 L507.6822814941406,105.5973129272461 L508.06219482421875,105.15489196777344 L508.2209777832031,105.0 M501.47210693359375,112.74671173095703 L501.4657287597656,113.3795166015625 L501.46771240234375,114.49596405029297 L501.4850158691406,116.03946685791016 L501.50775146484375,117.79966735839844 L501.5285339355469,119.68930053710938 L501.518798828125,121.60464477539062 L501.4895324707031,123.47251892089844 L501.47601318359375,125.1650619506836 L501.52410888671875,126.54652404785156 L501.65728759765625,127.52550506591797 L501.82244873046875,128.08355712890625 L501.9555969238281,128.3061981201172 M508.017578125,122.44915008544922 L508.42169189453125,122.24605560302734 L509.19598388671875,121.79898071289062 L510.33197021484375,121.06782531738281 L511.7060241699219,120.10091400146484 L513.20458984375,118.96858978271484 L514.6578979492188,117.76090240478516 L515.9037475585938,116.57592010498047 L516.8026733398438,115.4906234741211 L517.22900390625,114.57830810546875 L517.1347045898438,113.92123413085938 L516.501708984375,113.58761596679688 L515.3489990234375,113.65298461914062 L513.7908325195312,114.18235778808594 L512.0250244140625,115.18206024169922 L510.28973388671875,116.59419250488281 L508.8383483886719,118.31255340576172 L507.8624267578125,120.18524932861328 L507.4671630859375,122.06070709228516 L507.6771545410156,123.79039764404297 L508.5469055175781,125.1820297241211 L510.0126647949219,126.08159637451172 L511.9234313964844,126.4238052368164 L513.6724243164062,126.38732147216797 L514.8700561523438,126.2026596069336 M525.4806518554688,117.8189468383789 L525.2733154296875,117.62157440185547 L524.8353271484375,117.42530822753906 L524.114990234375,117.3817367553711 L523.1513061523438,117.6723403930664 L522.0267333984375,118.3636474609375 L520.8665771484375,119.43328857421875 L519.840087890625,120.7726058959961 L519.1178588867188,122.24055480957031 L518.8095703125,123.63780975341797 L518.9818725585938,124.76482391357422 L519.6129150390625,125.46525573730469 L520.60400390625,125.63320922851562 L521.823486328125,125.22879028320312 L523.11865234375,124.30482482910156 L524.3372192382812,122.98480224609375 L525.3814697265625,121.45669555664062 L526.1730346679688,119.94017028808594 L526.6890869140625,118.6270523071289 L526.9567260742188,117.63639831542969 L527.0303344726562,117.03356170654297 L526.9695434570312,116.85406494140625 L526.8310546875,117.13365936279297 L526.6530151367188,117.91468048095703 L526.478759765625,119.1885757446289 L526.3671875,120.83802032470703 L526.3795776367188,122.66149139404297 L526.5494384765625,124.43228912353516 L526.9171142578125,125.87936401367188 L527.4827270507812,126.81484985351562 L528.1976928710938,127.1689453125 L528.8467407226562,127.12748718261719 L529.2935180664062,126.9284439086914 M532.6766357421875,117.57801055908203 L532.7152709960938,117.81976318359375 L532.7569580078125,118.3433609008789 L532.7705078125,119.20195007324219 L532.7283935546875,120.33695983886719 L532.634521484375,121.64425659179688 L532.5235595703125,122.9726333618164 L532.4379272460938,124.15876770019531 L532.3976440429688,125.03761291503906 L532.4174194335938,125.47823333740234 L532.5076904296875,125.37290954589844 L532.6883544921875,124.69105529785156 L532.9779663085938,123.47794342041016 L533.384521484375,121.8906021118164 L533.897705078125,120.14632415771484 L534.5098266601562,118.4778823852539 L535.2036743164062,117.05624389648438 L535.968017578125,115.9810562133789 L536.7951049804688,115.2842025756836 L537.6759643554688,114.9543685913086 L538.63671875,114.98784637451172 L539.6697998046875,115.34806060791016 L540.718994140625,115.94732666015625 L541.563232421875,116.5369873046875 L542.08935546875,116.9568862915039 M546.8626708984375,124.51839447021484 L546.809814453125,124.82465362548828 L546.6506958007812,125.49781799316406 L546.3187255859375,126.60054779052734 L545.7901000976562,128.09495544433594 L545.0829467773438,129.8958282470703 L544.2609252929688,131.8739013671875 L543.40087890625,133.86758422851562 L542.656005859375,135.64479064941406 L542.1402587890625,136.96099853515625 L541.9371337890625,137.68472290039062 L541.956787109375,137.91705322265625 L542.0736083984375,137.8734588623047 M570.3306884765625,111.34281921386719 L570.2498168945312,111.02880859375 L570.03466796875,110.58609008789062 L569.6064453125,110.1514663696289 L568.8999633789062,109.91635131835938 L567.8717041015625,109.95472717285156 L566.5243530273438,110.32256317138672 L564.92626953125,111.03276062011719 L563.1767578125,112.08252716064453 L561.3955688476562,113.46258544921875 L559.7156372070312,115.12600708007812 L558.2777709960938,117.00733184814453 L557.2236328125,119.01215362548828 L556.7092895507812,121.00466918945312 L556.8358154296875,122.83358764648438 L557.601806640625,124.38288116455078 L559.0096435546875,125.5168228149414 L560.9183959960938,126.15604400634766 L563.1099853515625,126.29207611083984 L564.9871215820312,126.13101959228516 L566.21240234375,125.887939453125 M580.3953247070312,110.4089584350586 L579.9977416992188,110.06820678710938 L579.2074584960938,109.6607666015625 L577.9945068359375,109.38557434082031 L576.4840087890625,109.47796630859375 L574.8450317382812,109.96541595458984 L573.3179321289062,110.80592346191406 L572.1510620117188,111.8850326538086 L571.55322265625,113.1087646484375 L571.6410522460938,114.38519287109375 L572.4390258789062,115.63574981689453 L573.8805541992188,116.8050537109375 L575.8113403320312,117.8697738647461 L577.9979858398438,118.81976318359375 L580.1364135742188,119.68038940429688 L581.926513671875,120.46266174316406 L583.1373901367188,121.18434143066406 L583.6304321289062,121.86141967773438 L583.3775634765625,122.50044250488281 L582.4337158203125,123.09193420410156 L580.9176025390625,123.63302612304688 L579.023193359375,124.083740234375 L577.0076904296875,124.42404174804688 L575.1158447265625,124.64910125732422 L573.6412963867188,124.74549102783203 L572.7772827148438,124.71251678466797 L572.5762939453125,124.57034301757812 L572.7757568359375,124.39460754394531 L573.0914306640625,124.25293731689453 M590.3864135742188,109.8249282836914 L590.3690795898438,109.94315338134766 L590.2965087890625,110.3113784790039 L590.116455078125,111.0438003540039 L589.79931640625,112.18063354492188 L589.3673706054688,113.68019104003906 L588.837890625,115.4489974975586 L588.2753295898438,117.37922668457031 L587.7662353515625,119.34764099121094 L587.4053955078125,121.22775268554688 L587.31591796875,122.89273834228516 L587.6160888671875,124.24405670166016 L588.3529052734375,125.21263122558594 L589.5069580078125,125.78044128417969 L590.9993896484375,125.98164367675781 L592.7032470703125,125.90184783935547 L594.4761962890625,125.60626220703125 L596.147705078125,125.16116333007812 L597.56005859375,124.6102523803711 L598.5234375,124.11334991455078 L599.0286865234375,123.769775390625 M589.1826782226562,117.95745086669922 L589.2994995117188,117.92757415771484 L589.786376953125,117.83834075927734 L590.8251342773438,117.6601791381836 L592.4730834960938,117.3533935546875 L594.509765625,116.91867065429688 L596.6215209960938,116.3813247680664 L598.2739868164062,115.89874267578125 L599.2554931640625,115.57211303710938 " fill="none" stroke="black" stroke-linecap="round" stroke-width="2" /></svg>