<?xml version="1.0" encoding="utf-8" ?>
<svg baseProfile="full" height="100%" version="1.1" viewBox="0,0,1000,180" width="100%" xmlns="http://www.w3.org/2000/svg" xmlns:ev="http://www.w3.org/2001/xml-events" xmlns:xlink="http://www.w3.org/1999/xlink"><defs /><rect fill="white" height="180" width="1000" x="0" y="0" /><path d="M0,0 M394.30029296875,74.9208984375 L394.4038391113281,72.778076171875 L394.6982727050781,68.9810562133789 L395.30517578125,65.0468521118164 L395.9844970703125,62.08330154418945 L396.8297424316406,61.418731689453125 M397.6672058105469,62.43312072753906 L398.1994323730469,62.977481842041016 L398.95147705078125,63.56101989746094 L399.7794189453125,63.895015716552734 L400.5135803222656,63.80591583251953 L401.1310119628906,63.675411224365234 L401.38543701171875,62.64754867553711 L401.2426452636719,63.3228759765625 L401.0018310546875,65.43243408203125 L400.73297119140625,67.85446166992188 L400.65966796875,70.31144714355469 L400.7558898925781,71.6351089477539 L401.0946350097656,71.26390075683594 L401.0483093261719,70.72882080078125 L401.153564453125,70.49058532714844 L401.33660888671875,70.1240005493164 L401.59130859375,70.17345428466797 L401.9063415527344,70.35147857666016 M403.52947998046875,71.94243621826172 L403.70343017578125,71.84679412841797 L404.3129577636719,71.80281829833984 L405.1087951660156,71.82667541503906 L406.1977233886719,72.00777435302734 L407.0386962890625,71.9722671508789 L407.7184753417969,71.56865692138672 L408.43511962890625,70.89362335205078 L409.2233581542969,70.47059631347656 L409.83544921875,70.32036590576172 L410.5088806152344,70.15033721923828 L410.6685485839844,69.46708679199219 L411.15850830078125,69.17642211914062 L412.02008056640625,69.23054504394531 L412.7954406738281,69.71491241455078 L413.6577453613281,70.54398345947266 L414.4661865234375,71.067626953125 L415.11767578125,71.07978057861328 L415.68359375,70.91551971435547 L415.962646484375,70.18245697021484 L415.829345703125,69.24532318115234 L415.603515625,68.04387664794922 L415.7385559082031,67.45819854736328 L416.27423095703125,67.28584289550781 L416.698974609375,67.24800872802734 L417.2008972167969,67.35238647460938 L417.7919616699219,67.98200988769531 L418.3435363769531,68.14801025390625 L419.04376220703125,68.16075897216797 L419.7742919921875,67.9881362915039 L420.176513671875,67.48593139648438 L420.490966796875,66.98117065429688 L420.78863525390625,66.74691772460938 L421.1033935546875,66.55661010742188 L421.6634521484375,66.8637466430664 L422.5834045410156,67.46465301513672 L423.08978271484375,67.74512481689453 L423.44036865234375,67.51307678222656 L423.5862121582031,66.69839477539062 L423.7298583984375,65.6085205078125 L424.14874267578125,64.84021759033203 L424.60205078125,64.17257690429688 L425.002197265625,63.3500862121582 L425.8287658691406,62.94690704345703 L426.94305419921875,63.030860900878906 L428.0709533691406,63.352413177490234 L428.78778076171875,63.166099548339844 L428.6280517578125,62.494056701660156 L428.4107666015625,61.469783782958984 L428.4541931152344,60.961029052734375 L428.74078369140625,60.951507568359375 M429.8255615234375,60.250953674316406 L430.1197204589844,60.693084716796875 L430.427734375,60.761932373046875 L430.55743408203125,60.44121170043945 L430.8420104980469,59.7059440612793 L431.1490173339844,59.00371170043945 L431.47100830078125,58.52283477783203 L431.97882080078125,58.408363342285156 L432.77593994140625,58.624568939208984 L433.5184326171875,59.1285514831543 L434.4667663574219,59.681190490722656 L435.45751953125,60.17390823364258 L436.0055236816406,60.461219787597656 L436.43560791015625,61.0118293762207 L436.7812194824219,61.5221061706543 L437.07965087890625,61.72991943359375 L437.4150085449219,61.52248001098633 L437.6182556152344,61.24872970581055 L437.5703125,60.81460189819336 L437.71044921875,60.86750793457031 L437.80169677734375,61.14508819580078 L438.0749816894531,61.47978591918945 M439.5920715332031,61.94093322753906 L440.17633056640625,62.60829162597656 L440.6100769042969,63.133113861083984 L440.6600036621094,63.16132354736328 L440.5036926269531,62.47214889526367 L440.68096923828125,61.63309097290039 L441.02935791015625,60.79145812988281 L441.6824645996094,60.556636810302734 L442.118408203125,60.830345153808594 L442.19873046875,60.974639892578125 L442.028564453125,60.94264602661133 L442.24700927734375,61.13338851928711 L442.3977355957031,61.109840393066406 L442.7552185058594,61.348365783691406 M443.5353698730469,61.0444450378418 L443.7358703613281,61.28765869140625 L444.57354736328125,61.24474334716797 L445.9942321777344,61.17921447753906 L447.306884765625,60.98576354980469 L448.6048889160156,61.21510696411133 L449.42193603515625,61.48833465576172 L449.8921813964844,62.45233154296875 L450.471923828125,63.37736511230469 L451.3001403808594,64.38832092285156 L451.9128723144531,65.02788543701172 L452.28448486328125,65.0744857788086 L452.4732666015625,65.0689697265625 L452.769287109375,65.31685638427734 L452.9857482910156,65.74796295166016 L453.28436279296875,66.3012466430664 M453.8462829589844,65.2874984741211 L454.3720397949219,65.61925506591797 L454.9712829589844,65.9366683959961 L455.73468017578125,66.20596313476562 L456.3395690917969,66.53722381591797 L456.8431396484375,66.82551574707031 L457.38018798828125,66.85791015625 L458.2265930175781,67.07821655273438 L458.8307800292969,67.13424682617188 L459.2004089355469,66.95146179199219 L459.4552307128906,66.61396789550781 L459.71258544921875,66.21733093261719 L459.9687805175781,65.80111694335938 L460.5283203125,65.16918182373047 L461.2227478027344,65.36503601074219 L461.750244140625,65.75543975830078 L462.4218444824219,66.22650146484375 L462.935302734375,66.92552947998047 L463.413818359375,67.63335418701172 L463.9532775878906,68.06348419189453 L464.5975036621094,69.03245544433594 L465.0514221191406,69.80683135986328 L465.2411804199219,69.90376281738281 L465.41876220703125,70.05586242675781 L465.8515930175781,70.0256118774414 L466.58636474609375,70.02865600585938 L467.2164306640625,69.67387390136719 L467.5745544433594,69.11868286132812 L467.83685302734375,68.49159240722656 L467.8630065917969,68.28195190429688 L467.8761291503906,68.15615844726562 L468.3348083496094,68.66850280761719 L468.8854675292969,68.8869400024414 L469.5011291503906,68.98905944824219 L470.4914855957031,69.58340454101562 L471.001220703125,69.69281768798828 L470.8825988769531,69.01394653320312 L470.72052001953125,68.46920776367188 L470.396484375,67.60765838623047 L469.7994079589844,66.51559448242188 L469.65478515625,66.29722595214844 L469.8017883300781,66.40125274658203 L470.14404296875,66.51744079589844 L470.7338562011719,66.68489837646484 L471.52728271484375,66.81486511230469 L472.0149841308594,66.42205047607422 L472.77044677734375,65.86317443847656 L473.5419006347656,64.948974609375 L474.419677734375,64.04187774658203 L475.1360168457031,63.21670150756836 L475.7310791015625,62.938079833984375 M476.8818664550781,63.1214485168457 L478.1579895019531,63.35319519042969 L479.55633544921875,63.59382247924805 L480.67083740234375,63.58393096923828 L481.0663146972656,63.693572998046875 L481.8741760253906,64.22603607177734 L482.84832763671875,64.61163330078125 L483.504150390625,65.15626525878906 L483.9063720703125,65.67906188964844 L484.0133361816406,65.48413848876953 L483.6380920410156,65.26614379882812 L483.1109619140625,64.58500671386719 L483.21478271484375,64.01725006103516 L483.5216369628906,64.14775848388672 L484.4972839355469,64.81668853759766 L485.9651184082031,65.5318832397461 L487.37103271484375,66.20957946777344 L488.2494812011719,66.52357482910156 L489.0494079589844,66.81585693359375 L489.5549621582031,67.2069320678711 L490.16265869140625,67.52753448486328 L490.85760498046875,67.98007202148438 L491.5318908691406,67.90384674072266 L491.8494873046875,67.5199966430664 L492.3470153808594,66.99767303466797 L492.83087158203125,66.54877471923828 L493.34722900390625,66.20496368408203 L493.71014404296875,66.0291519165039 L494.138671875,65.85855865478516 L494.4981994628906,65.67379760742188 L494.96746826171875,65.64058685302734 L495.41912841796875,65.75721740722656 L495.53326416015625,65.41744995117188 L496.0425720214844,65.19641876220703 L496.7823791503906,64.97718048095703 L497.2187194824219,64.27460479736328 L497.43670654296875,63.56431198120117 L497.4206848144531,63.0319938659668 L497.4228210449219,62.389408111572266 L498.1678771972656,62.305477142333984 L498.8655090332031,62.0584831237793 L499.09161376953125,61.61513137817383 L499.1278076171875,61.30168914794922 L498.97540283203125,61.22315979003906 L498.93463134765625,61.176422119140625 L498.95916748046875,61.01564025878906 L499.0575866699219,60.67245101928711 L499.19232177734375,60.077178955078125 L499.4861755371094,59.469181060791016 L499.754638671875,58.87891387939453 L499.8996276855469,58.38839340209961 M502.3981018066406,56.9553108215332 L502.9022216796875,57.72294998168945 L503.38427734375,58.24772644042969 L503.82122802734375,58.453041076660156 L504.3088073730469,58.454830169677734 L504.6318359375,58.414730072021484 L504.82049560546875,58.51691818237305 L505.17626953125,58.907772064208984 L505.3189697265625,58.63078689575195 L505.5266418457031,58.03618240356445 L505.81427001953125,57.66581726074219 L505.99615478515625,57.56540298461914 L505.8870849609375,57.66170120239258 L505.6815185546875,57.67652130126953 L505.68817138671875,57.168701171875 L506.13629150390625,56.92123031616211 L506.5178527832031,57.10618209838867 L506.7809753417969,57.40080642700195 L506.59515380859375,57.39202880859375 L506.09619140625,56.746517181396484 L505.83349609375,55.62172317504883 L506.072509765625,54.85810852050781 L506.45538330078125,54.523681640625 L506.9072265625,54.395729064941406 M505.38201904296875,52.11507034301758 L503.9600830078125,50.724159240722656 L502.66143798828125,49.330772399902344 L501.8876647949219,48.37855911254883 L502.04034423828125,48.31119155883789 M502.81451416015625,49.58875274658203 L502.7139587402344,49.65058135986328 L502.598388671875,49.440185546875 L502.5072937011719,49.36610794067383 L502.7132263183594,49.364295959472656 L503.2008972167969,49.47861099243164 L503.60565185546875,49.82338333129883 L503.9620361328125,50.47327423095703 L504.36767578125,50.60975646972656 L504.80419921875,50.90182876586914 L505.31884765625,51.24281692504883 L505.8065490722656,51.79897689819336 L506.3106384277344,52.819828033447266 L507.14801025390625,54.18918228149414 L508.2499694824219,55.23817443847656 L509.28875732421875,56.03097915649414 L509.9190979003906,56.404930114746094 M510.150390625,55.070438385009766 L510.4582214355469,54.97134780883789 L510.7934265136719,54.94145202636719 M512.6851806640625,55.898380279541016 L513.0377197265625,56.36105728149414 M513.4141845703125,55.96379470825195 L513.9993286132812,56.202186584472656 L514.6449584960938,56.03628921508789 L515.1159057617188,55.36705017089844 L515.6964721679688,54.64830017089844 L516.2072143554688,54.03886032104492 L517.2081298828125,54.35844802856445 L518.3945922851562,55.27173614501953 L519.2483520507812,56.00804138183594 M519.0328979492188,54.998939514160156 L518.8422241210938,55.100467681884766 L519.06005859375,55.39022445678711 L519.9173583984375,55.80516052246094 L521.1510009765625,55.993446350097656 L522.3834838867188,55.576324462890625 L523.4998168945312,55.31711196899414 L524.12353515625,55.198768615722656 L524.873046875,55.58354568481445 L525.3958740234375,56.07870101928711 L526.0990600585938,56.72106170654297 L526.5867919921875,56.79620361328125 L527.0457153320312,57.708412170410156 L527.2936401367188,59.18617248535156 L527.4951171875,60.88150405883789 L527.2709350585938,62.08550262451172 M528.9451293945312,63.626888275146484 L529.2281494140625,63.95063781738281 L529.502685546875,64.30382537841797 M530.3258056640625,64.23648071289062 M530.015625,65.0203857421875 L530.3805541992188,64.8816909790039 L531.1921997070312,64.77767944335938 L532.403564453125,64.94015502929688 L533.7200317382812,65.6038818359375 L534.6988525390625,66.04457092285156 L535.0474853515625,66.1667251586914 L535.197265625,65.83160400390625 L535.3721313476562,65.4886474609375 L535.6397094726562,65.45027160644531 L536.3890380859375,66.05140686035156 L536.91357421875,66.4872055053711 L537.1287841796875,66.8818130493164 L537.2009887695312,66.95360565185547 L537.396728515625,67.19474792480469 L537.5510864257812,67.29481506347656 L538.0301513671875,67.28529357910156 L538.466552734375,67.12640380859375 L539.2068481445312,67.24222564697266 L539.9016723632812,67.61490631103516 L540.6092529296875,68.20684051513672 M542.1761474609375,70.2277603149414 L542.0362548828125,70.19345092773438 L541.9988403320312,69.90821075439453 L541.9232788085938,69.2730941772461 L541.8366088867188,68.53382110595703 L542.5089721679688,68.56402587890625 L542.8485717773438,68.7750473022461 L543.0816650390625,69.3154525756836 L543.3602905273438,69.74517059326172 M543.536376953125,69.45142364501953 L543.87109375,69.8696517944336 L544.1483154296875,70.23149108886719 L544.283447265625,70.41938018798828 M544.2944946289062,70.56814575195312 L544.5487060546875,70.28150939941406 L544.8743896484375,69.92070007324219 L545.365478515625,69.64689636230469 L545.9175415039062,69.62522888183594 L546.5420532226562,69.69700622558594 L546.927734375,69.68639373779297 L547.1229248046875,69.34255981445312 L547.2509765625,68.8022232055664 L547.6927490234375,68.38265991210938 L548.5140991210938,68.71778869628906 L549.41357421875,69.2119369506836 L550.1935424804688,69.85000610351562 L550.5520629882812,70.02330017089844 L550.559814453125,69.6265640258789 L550.2627563476562,68.89329528808594 L550.183837890625,68.55586242675781 L550.6565551757812,68.45558166503906 L551.546142578125,68.8363265991211 L552.40087890625,69.28697204589844 L553.212158203125,69.65580749511719 L553.653564453125,70.1312255859375 L554.2109375,70.63819885253906 L554.9764404296875,70.97122192382812 L555.6927490234375,71.27959442138672 L556.2158813476562,71.33057403564453 L556.5714111328125,71.3284683227539 M557.8413696289062,72.22197723388672 L558.3741455078125,72.5843276977539 L558.4714965820312,72.28307342529297 L558.5062866210938,71.79914855957031 L558.106201171875,70.95887756347656 L557.8451538085938,70.11543273925781 L558.07666015625,70.27193450927734 L558.9669189453125,71.02958679199219 L559.401611328125,71.24797058105469 L559.9215698242188,71.5607681274414 L560.3869018554688,71.84346771240234 L560.3848876953125,71.87244415283203 L560.5789794921875,72.13312530517578 L560.5565795898438,72.02140808105469 L560.2884521484375,71.43871307373047 L560.0849609375,70.6640625 L560.3569946289062,70.1419906616211 L560.6373291015625,69.75276947021484 L561.087890625,69.72148132324219 L561.1090087890625,69.66935729980469 L561.197998046875,69.7005386352539 L561.2437744140625,69.5185317993164 L561.3876342773438,68.89483642578125 L561.734375,67.95928955078125 L562.0127563476562,66.75892639160156 L562.107421875,65.5383529663086 L562.0745239257812,64.63092041015625 L562.2454223632812,64.48980712890625 L562.64208984375,64.6046371459961 L563.4610595703125,65.1493911743164 L563.9585571289062,65.5234146118164 L564.3111572265625,65.91412353515625 L564.3319091796875,66.01469421386719 L564.6717529296875,66.5499496459961 L565.2099609375,66.66167449951172 L566.1063232421875,66.84483337402344 L566.4493408203125,66.71049499511719 L566.7002563476562,66.41951751708984 L566.9176635742188,66.02208709716797 L567.4204711914062,66.2977523803711 L568.3363037109375,66.69595336914062 L569.141845703125,66.80570983886719 L569.4208984375,66.71857452392578 L569.6723022460938,66.32353210449219 L570.0576782226562,66.0755844116211 L570.6328125,66.37974548339844 L571.6753540039062,66.90469360351562 L572.43994140625,66.85751342773438 L572.8417358398438,66.66041564941406 L572.9920654296875,66.22554016113281 M572.4619140625,64.90853118896484 L572.1672973632812,64.6365737915039 L571.9029541015625,64.29403686523438 L571.7081298828125,63.96826934814453 L571.549560546875,63.810699462890625 L571.9859619140625,63.868438720703125 L572.4258422851562,63.60349655151367 L572.9898681640625,63.80675506591797 L573.6072387695312,63.931541442871094 L573.9111328125,64.14942932128906 L574.080078125,64.78382873535156 L574.3389282226562,65.31505584716797 L574.557861328125,65.76383972167969 L574.79541015625,66.24436950683594 L574.92333984375,66.36661529541016 M575.7307739257812,67.29594421386719 M577.1514892578125,67.55006408691406 L577.333740234375,67.47856140136719 M576.3438110351562,66.74068450927734 L577.080810546875,66.27933502197266 L578.5809326171875,66.01736450195312 L580.38916015625,66.05876922607422 L582.1134643554688,66.28607940673828 L583.2938232421875,66.4717788696289 L583.4158325195312,66.95166778564453 L583.7632446289062,67.0655746459961 L584.0897216796875,67.24378967285156 L584.451171875,67.72801971435547 L584.8482666015625,68.16619110107422 L585.503662109375,68.60212707519531 L586.1868896484375,69.61981964111328 L586.9920043945312,70.27059936523438 L587.687744140625,70.627197265625 L588.1783447265625,70.8937759399414 M588.6385498046875,69.60198211669922 L588.532958984375,68.89642333984375 L588.472412109375,67.81155395507812 L588.5987548828125,66.67859649658203 L588.9515380859375,66.10501098632812 L589.3204956054688,65.52042388916016 L589.5611572265625,65.21501159667969 L589.6986083984375,65.02227783203125 L589.7420043945312,64.68841552734375 L589.79736328125,64.61201477050781 L589.9577026367188,64.59265899658203 L590.0149536132812,64.1636962890625 L589.9183349609375,63.695953369140625 L589.7962646484375,63.32499694824219 L589.7706298828125,63.02802276611328 L589.822021484375,63.113548278808594 M589.1414184570312,63.11281967163086 L589.5750732421875,63.05957794189453 L589.9320678710938,63.09748077392578 L590.1477661132812,63.18891525268555 L590.1574096679688,63.2962760925293 M589.1461181640625,63.096397399902344 L589.033203125,63.654212951660156 L588.71826171875,63.936214447021484 L588.3690795898438,63.89345169067383 L588.1536865234375,63.47691345214844 M589.1619873046875,64.58501434326172 L589.1669921875,64.22061920166016 L589.1478271484375,64.02532958984375 L589.1239624023438,63.94239044189453 L589.2529907226562,64.14046478271484 L589.4888916015625,64.71525573730469 L590.20458984375,65.31584167480469 L591.1138305664062,65.83509063720703 L592.2041015625,65.95542907714844 L593.1357421875,65.58263397216797 L593.7872924804688,65.00248718261719 M594.8672485351562,64.96885681152344 L595.0006103515625,64.5833969116211 L595.3716430664062,64.60006713867188 L596.0093994140625,65.02439880371094 L596.7698974609375,65.59589385986328 L597.4231567382812,66.12641143798828 L597.8958740234375,66.5555419921875 L598.1514282226562,66.81739044189453 L598.3468017578125,67.18487548828125 M599.206787109375,66.91021728515625 L599.5504150390625,67.6168441772461 L599.9903564453125,68.68590545654297 L600.719482421875,69.6321029663086 L601.4423828125,70.12345886230469 L601.91455078125,70.29313659667969 M602.3983154296875,70.7853775024414 L602.85546875,71.0160903930664 L603.5254516601562,71.10848236083984 L604.32568359375,71.22058868408203 L604.854736328125,71.3499755859375 L605.2559814453125,71.32574462890625 L605.0435791015625,71.44458770751953 L605.0175170898438,71.13055419921875 L604.80712890625,70.41163635253906 L604.8776245117188,69.87899017333984 L605.0927734375,69.53433227539062 L605.4388427734375,69.36128234863281 L605.69970703125,69.35579681396484 " fill="none" stroke="black" stroke-linecap="round" stroke-width="2" /><path d="M0,0 M401.0075378417969,124.03370666503906 L401.3316345214844,124.10848999023438 L401.692138671875,124.35836029052734 L401.8168029785156,124.52880096435547 L401.7168273925781,124.2866439819336 L401.8293151855469,124.25638580322266 L401.8243713378906,123.79035186767578 L401.94879150390625,122.97766876220703 L402.2662353515625,122.466552734375 L402.5935363769531,122.067626953125 L402.9388122558594,121.49811553955078 L403.6383361816406,121.70030212402344 L404.3321533203125,121.96366882324219 L405.1521301269531,122.23362731933594 L405.87982177734375,122.43932342529297 L406.59356689453125,122.73881530761719 L407.0050354003906,122.26983642578125 L407.26873779296875,121.94180297851562 L407.4943542480469,121.5309066772461 L407.8639831542969,121.38093566894531 L408.000732421875,121.17578125 M409.05035400390625,121.48136901855469 L409.2508850097656,121.25623321533203 L409.6551818847656,120.55792999267578 L410.9115295410156,120.35566711425781 L411.16302490234375,119.67366790771484 L410.14739990234375,118.1050796508789 L410.1326599121094,117.20079803466797 L411.0103454589844,117.16322326660156 L412.7953796386719,117.60999298095703 L415.2298889160156,118.85010528564453 L416.4420166015625,119.73458099365234 L416.11724853515625,119.1408462524414 L416.460205078125,119.06472778320312 L417.17236328125,119.19107818603516 L418.21527099609375,119.49010467529297 L418.8771667480469,119.63043212890625 L419.3146667480469,119.81594848632812 L419.36077880859375,119.36860656738281 L419.4049377441406,119.25228118896484 L419.6363830566406,119.44303131103516 M420.8265380859375,118.69707489013672 L421.2343444824219,118.27941131591797 L421.8172912597656,117.39983367919922 L422.4501647949219,116.9128646850586 L422.81884765625,116.72205352783203 L423.3733825683594,116.74458312988281 L423.9481506347656,117.08451080322266 L424.72686767578125,118.05995178222656 L425.8514709472656,118.87004089355469 L426.8678894042969,119.84751892089844 L427.5123291015625,120.61991882324219 L427.9349670410156,120.9212646484375 L428.12750244140625,120.52642059326172 L428.447998046875,120.13224792480469 L429.18310546875,119.94937133789062 L429.8813781738281,119.8728256225586 L430.3402099609375,119.71798706054688 L431.0156555175781,119.76142883300781 L431.6867980957031,119.62176513671875 L432.0567932128906,119.26116180419922 L432.2855224609375,119.02030181884766 L432.17169189453125,118.51634216308594 L431.9896545410156,117.81964111328125 L432.2181091308594,117.46532440185547 L432.6231384277344,117.0003890991211 L433.24444580078125,116.82426452636719 L433.7937927246094,116.814208984375 L434.189208984375,116.73405456542969 L434.92901611328125,117.18265533447266 L435.5304870605469,117.4687271118164 L435.7490234375,116.9342269897461 L435.6558532714844,116.3560562133789 L435.2572937011719,115.53141021728516 L434.9061584472656,114.36553192138672 L434.93927001953125,113.59658813476562 L435.2831726074219,113.070556640625 L435.70257568359375,112.287841796875 L436.208251953125,111.92308807373047 L436.5830078125,111.79783630371094 L437.3353271484375,111.780029296875 L438.379150390625,112.26144409179688 L439.5435791015625,112.97096252441406 L440.770751953125,114.03321838378906 L441.7138671875,115.0941162109375 L442.5598449707031,116.36325073242188 L443.7496643066406,117.63270568847656 L444.6392822265625,118.76164245605469 L444.90020751953125,119.07288360595703 L444.7887268066406,118.89682006835938 L444.10101318359375,117.88643646240234 L443.6864013671875,117.05715942382812 L443.8499755859375,116.21145629882812 L444.0701904296875,115.74861907958984 L444.4140319824219,115.6329345703125 L444.9374084472656,115.53076171875 L445.7425537109375,115.60101318359375 L446.7676086425781,115.98690032958984 L447.8484191894531,116.20854187011719 L448.6120300292969,116.45281219482422 M450.27825927734375,109.96735382080078 L450.61676025390625,109.8818588256836 L451.1783447265625,109.95866394042969 L451.7520751953125,110.1352767944336 L452.12701416015625,110.3492202758789 M452.8869323730469,110.44486236572266 L452.9952392578125,110.36589813232422 L453.10601806640625,110.30606842041016 M454.14178466796875,109.75748443603516 L454.14178466796875,109.04843139648438 L454.1225280761719,108.26998138427734 L454.2165832519531,107.94602966308594 L454.6653747558594,108.31584167480469 L455.4397277832031,109.08206939697266 L456.71881103515625,110.43156433105469 L458.1741943359375,111.87129974365234 L459.1910400390625,112.9473876953125 L460.27984619140625,114.18602752685547 L461.3104553222656,114.95697784423828 L462.0800476074219,115.26856994628906 L462.48126220703125,115.34182739257812 L462.9653015136719,115.43061065673828 L463.04986572265625,115.31256103515625 L463.3908996582031,115.57152557373047 M463.6658935546875,115.0036392211914 L461.9483642578125,116.44729614257812 L460.443115234375,117.88338470458984 L459.1364440917969,119.29412841796875 L458.7449951171875,120.24815368652344 L459.23895263671875,120.18328094482422 L458.8372802734375,120.29306030273438 L458.2555236816406,120.01033782958984 L458.2015686035156,119.53338623046875 L458.242431640625,119.23284912109375 L458.9711608886719,119.28655242919922 L459.88189697265625,119.83062744140625 L460.5169677734375,120.0219497680664 L461.0015563964844,120.25563049316406 M461.77825927734375,120.16242980957031 L462.4197082519531,120.25070190429688 L463.0808410644531,120.34418487548828 L463.4765930175781,120.25135803222656 L463.7486877441406,120.172607421875 L463.885009765625,119.89657592773438 L464.1541748046875,119.68120574951172 L464.7342529296875,120.07723999023438 L465.61029052734375,120.91753387451172 L466.5239562988281,121.57677459716797 L467.60150146484375,122.03018188476562 L468.6650695800781,122.78009033203125 L469.0130615234375,123.0474853515625 L469.1284484863281,123.36138153076172 L469.3227844238281,123.82941436767578 L469.4300842285156,123.80225372314453 L469.5420227050781,123.43917846679688 L469.6525573730469,123.175537109375 M469.8248291015625,122.65363311767578 L470.20111083984375,122.7616958618164 L470.41412353515625,122.28015899658203 L471.31048583984375,121.94184112548828 L472.4049072265625,121.35287475585938 L473.8185729980469,121.06062316894531 L475.2963562011719,121.09442138671875 L476.55133056640625,121.55591583251953 L477.1178283691406,121.69622039794922 L478.0783386230469,122.24520874023438 L478.75006103515625,122.40015411376953 L479.69024658203125,122.79692840576172 L480.45343017578125,123.0099868774414 L481.0174560546875,123.16077423095703 L481.2760009765625,122.74237823486328 L481.6203308105469,122.19883728027344 L481.867919921875,121.65673828125 L482.3125305175781,121.26348114013672 L482.7027282714844,121.11442565917969 L483.041259765625,120.74408721923828 L483.29632568359375,119.77928924560547 L483.4164123535156,118.38524627685547 L483.7991943359375,117.0350341796875 L484.21044921875,115.99224090576172 L484.5862121582031,115.0197982788086 L485.0459899902344,114.02055358886719 L485.4087219238281,113.29225158691406 L485.75274658203125,113.14212799072266 L486.1284484863281,113.24589538574219 L486.37884521484375,113.67610931396484 L486.6276550292969,113.76496124267578 L486.7654113769531,112.97846984863281 L486.9798583984375,112.3641357421875 L486.9369201660156,111.7770004272461 L488.69708251953125,113.14067077636719 L491.6069030761719,115.57459259033203 L494.80865478515625,118.34959411621094 L497.43524169921875,120.244384765625 L499.0780944824219,121.32928466796875 L499.02197265625,120.75390625 L499.53997802734375,120.69164276123047 L499.926025390625,119.77945709228516 L500.3697509765625,118.68312072753906 L500.82635498046875,117.7123794555664 L501.35601806640625,117.28295135498047 L501.734619140625,117.29525756835938 M501.8094787597656,116.22929382324219 L501.9823913574219,114.33831024169922 L502.2039489746094,112.28226470947266 M503.473876953125,111.39553833007812 L504.0142517089844,110.92667388916016 L504.0461120605469,112.02986907958984 L503.85406494140625,114.36204528808594 L503.38275146484375,116.93115997314453 L503.12591552734375,119.2524185180664 L503.661376953125,121.06240844726562 L504.4574279785156,121.25337219238281 L504.8929748535156,122.40489196777344 L505.3190002441406,123.61116790771484 L505.57147216796875,124.15298461914062 L506.0138244628906,123.54044342041016 L506.9661865234375,122.92919158935547 L507.51751708984375,122.12276458740234 L508.0588073730469,121.62496948242188 L508.79461669921875,121.52474975585938 L509.2681579589844,121.33422088623047 L509.45947265625,120.64390563964844 L509.6661071777344,120.61890411376953 L510.0769958496094,120.95391845703125 L510.8205261230469,121.28227996826172 L511.3561706542969,121.65528869628906 L511.259033203125,121.3860855102539 L510.65625,120.67576599121094 L509.96954345703125,120.0645980834961 M510.9396667480469,120.95120239257812 L511.14410400390625,121.14192199707031 L511.55938720703125,120.95808410644531 L512.2005004882812,120.73623657226562 L512.833251953125,120.39034271240234 L513.3302001953125,120.37959289550781 L513.5626831054688,120.27044677734375 L513.6429443359375,120.1491470336914 L513.648681640625,119.8353042602539 M513.021240234375,118.46552276611328 L513.440185546875,118.68350219726562 L513.9326171875,119.031494140625 L514.4769897460938,119.29257202148438 L514.987548828125,119.04879760742188 L515.439453125,118.6233901977539 L515.63427734375,117.82614135742188 M516.3781127929688,117.03076171875 L516.710205078125,116.59619140625 L517.0291137695312,116.0959243774414 L517.1587524414062,115.7935791015625 L517.1011352539062,115.82813262939453 L516.906982421875,116.009765625 L517.1241455078125,115.11417388916016 L517.0247192382812,115.54228210449219 L516.62451171875,116.7736587524414 L516.2161254882812,118.57498931884766 L515.904296875,120.2510986328125 L515.554931640625,121.14671325683594 L515.8956298828125,120.36265563964844 L515.845703125,119.87110900878906 L515.8148193359375,119.75382232666016 L515.9749755859375,119.99649047851562 L516.1566162109375,120.35604858398438 M517.1825561523438,122.11187744140625 L517.8616943359375,122.37931823730469 L518.4395751953125,122.72412109375 L519.0928344726562,123.34794616699219 L519.456298828125,123.9465560913086 L519.404541015625,123.92610168457031 L519.2716064453125,123.44449615478516 L519.229736328125,122.32954406738281 L519.1084594726562,121.2879638671875 L519.5833129882812,120.79238891601562 L520.1932983398438,120.80602264404297 L520.700927734375,120.91014862060547 L521.2107543945312,121.21990966796875 L521.5457763671875,121.53787231445312 L521.9439086914062,121.70783233642578 L522.490478515625,121.45671081542969 L522.7310791015625,120.91983795166016 L522.8165893554688,119.6378173828125 L522.6719970703125,118.05364990234375 L522.4666748046875,116.97016906738281 L522.474853515625,116.00147247314453 L522.9000244140625,115.71261596679688 L523.1316528320312,115.75489044189453 L523.4049682617188,115.27327728271484 L523.5452880859375,114.71609497070312 L523.6467895507812,114.352783203125 M525.191650390625,114.9009017944336 M527.0943603515625,116.05189514160156 L528.248779296875,117.05477905273438 L529.5181884765625,118.3550796508789 L530.6830444335938,119.48715209960938 L531.2381591796875,119.90377807617188 L531.5609130859375,119.80036926269531 L531.596923828125,119.3551025390625 L532.0150756835938,119.03179168701172 L532.0985107421875,118.8604736328125 L532.5003662109375,119.1296157836914 L533.16650390625,119.68561553955078 L534.342529296875,120.55160522460938 L535.541259765625,121.1650390625 L536.9973754882812,121.40286254882812 L537.8484497070312,121.18312072753906 L538.4891357421875,120.77588653564453 L538.7827758789062,120.49885559082031 L539.0653076171875,120.56742095947266 L539.3748779296875,120.66185760498047 L540.17919921875,121.44003295898438 L540.9210205078125,122.22582244873047 L541.5437622070312,122.38915252685547 L541.836181640625,122.15292358398438 L541.94775390625,121.66056823730469 M541.7340087890625,120.85323333740234 L541.70068359375,120.74535369873047 L541.71826171875,120.59867095947266 L542.1292724609375,120.88028717041016 L542.7328491210938,121.4411392211914 L543.4163818359375,122.06890106201172 M544.6744995117188,122.510986328125 L544.7810668945312,122.30137634277344 L545.0684204101562,122.4682388305664 L545.4409790039062,122.67115020751953 L545.8004150390625,122.68739318847656 L545.7220458984375,122.22492218017578 L545.2830810546875,121.3523178100586 L544.3508911132812,121.00592041015625 L544.1753540039062,120.55423736572266 L544.807373046875,120.15283966064453 L546.1710815429688,119.94215393066406 L547.7659301757812,120.0989761352539 L549.039794921875,120.6263656616211 L549.2769775390625,121.49437713623047 L549.4293212890625,121.54149627685547 L549.4395141601562,121.38068389892578 L549.1431884765625,121.1044692993164 L548.97412109375,120.7696762084961 L548.8472290039062,120.30845642089844 L549.0303955078125,120.22598266601562 L549.3826904296875,120.18312072753906 L549.842529296875,120.58590698242188 L549.9947509765625,120.88330078125 L549.8468017578125,121.09577178955078 L549.3818359375,121.08164978027344 L548.85595703125,121.02190399169922 L548.600830078125,121.32837677001953 L548.6571655273438,121.99118041992188 L549.0035400390625,122.51969146728516 M550.555419921875,123.00983428955078 L550.4561157226562,122.6434555053711 L550.388671875,122.16116333007812 L550.3890380859375,121.56968688964844 L550.6856689453125,121.00607299804688 L551.0767211914062,120.27156829833984 L551.1041259765625,119.66626739501953 L551.3197631835938,119.75609588623047 L551.7486572265625,120.41749572753906 L552.2930908203125,121.29994201660156 L552.8735961914062,121.82778930664062 L553.202880859375,121.6901626586914 L552.8392333984375,121.08084106445312 L552.8015747070312,120.98889923095703 L553.17138671875,121.4024658203125 L553.7510986328125,122.10899353027344 M554.5133056640625,121.8333969116211 L554.4042358398438,121.8825454711914 L554.2437133789062,121.76701354980469 L554.3502197265625,121.7261962890625 L554.414306640625,121.52418518066406 L554.408935546875,120.82955932617188 L554.496826171875,120.0694580078125 L554.67138671875,119.3114013671875 L555.1781005859375,118.8046875 L555.9368286132812,118.56415557861328 L556.6640625,118.46282958984375 L557.4251098632812,118.27566528320312 L558.0877685546875,117.98185729980469 L558.5671997070312,117.7540512084961 M559.2487182617188,117.06986236572266 L559.8189086914062,117.59126281738281 L560.3880615234375,118.14494323730469 L560.7828369140625,118.58538055419922 L560.8299560546875,118.76702117919922 M561.2281494140625,118.37562561035156 L561.57666015625,118.13602447509766 L561.9013671875,117.56404876708984 L562.3749389648438,117.52738952636719 L563.29296875,118.71337127685547 L564.1047973632812,120.04686737060547 L564.8576049804688,121.07845306396484 L565.71044921875,122.0457763671875 L566.18701171875,122.10022735595703 L566.5250244140625,121.79985046386719 L566.8471069335938,121.87544250488281 L567.1338500976562,121.79610443115234 L567.3690185546875,121.44818115234375 L567.6488647460938,121.10590362548828 L568.0319213867188,120.66576385498047 L568.6265258789062,120.43988800048828 L569.110107421875,120.42473602294922 L570.035400390625,121.28624725341797 L570.915283203125,122.40095520019531 L571.5464477539062,123.47126007080078 L572.055908203125,124.82044982910156 L572.2277221679688,125.51643371582031 L572.019287109375,125.24690246582031 L571.8322143554688,124.78614044189453 M572.2167358398438,123.37378692626953 M572.2730712890625,122.23741149902344 L572.7095336914062,122.63394165039062 L573.3359985351562,122.88218688964844 L573.7557373046875,122.994140625 L574.0540161132812,123.29276275634766 L574.4872436523438,123.754638671875 L574.7987670898438,124.28392028808594 L575.2824096679688,125.03912353515625 L575.91259765625,125.42803192138672 L576.27783203125,125.29915618896484 L576.9108276367188,124.80774688720703 L576.82568359375,124.51726531982422 L576.4237670898438,124.41891479492188 L575.8086547851562,124.38053131103516 L575.5961303710938,124.91627502441406 L575.8214111328125,125.428466796875 L576.5430908203125,125.648193359375 L577.102783203125,126.28614044189453 L577.7606201171875,126.7476577758789 L578.286376953125,126.5083999633789 L578.9769897460938,126.19652557373047 L579.7184448242188,126.10286712646484 L580.37353515625,126.43623352050781 L580.8507690429688,127.06552124023438 L581.2911987304688,127.61509704589844 L581.620849609375,127.62071228027344 L581.600341796875,127.0896224975586 L581.2373046875,126.2660140991211 L581.1782836914062,125.4626693725586 L581.1747436523438,124.49726104736328 L581.6773071289062,123.6400375366211 L582.4425659179688,123.1531982421875 L583.0759887695312,123.20269012451172 L583.3919677734375,123.28430938720703 L584.2342529296875,123.86300659179688 L584.1441650390625,123.49959564208984 L583.21826171875,122.25374603271484 L581.8816528320312,120.51519012451172 L581.1234130859375,118.85816192626953 L580.972412109375,118.01234436035156 L581.7432861328125,118.35707092285156 L582.0299072265625,118.18043518066406 L581.8709716796875,117.67530822753906 L581.63232421875,117.04930114746094 L581.8604736328125,116.39588165283203 L582.1318359375,116.01378631591797 L582.7920532226562,116.23316192626953 L583.7349853515625,116.52928161621094 L584.5738525390625,116.9518051147461 L585.3490600585938,117.76803588867188 L585.6107177734375,118.37075805664062 L585.7392578125,118.39401245117188 L586.0810546875,118.29812622070312 L586.4970703125,118.07585906982422 M586.7237548828125,118.26624298095703 L586.909423828125,118.4471206665039 L587.4716186523438,119.06449127197266 L588.3745727539062,119.88077545166016 L589.4481201171875,120.54437255859375 L590.2098388671875,120.2834243774414 L590.7636108398438,119.8841323852539 L591.1617431640625,119.48114776611328 L591.5619506835938,119.42261505126953 L591.96142578125,119.60316467285156 L592.2352294921875,119.77628326416016 L592.1766967773438,119.57957458496094 L591.9873046875,119.48580169677734 M592.158203125,118.53645324707031 L591.9044189453125,118.04020690917969 L591.7395629882812,117.31151580810547 L591.6898803710938,116.67544555664062 L591.9012451171875,116.2298583984375 L592.208251953125,115.79267883300781 L592.6541137695312,115.51124572753906 L592.6995849609375,115.03628540039062 L592.757080078125,114.48097229003906 L592.663330078125,114.02542114257812 L592.6864013671875,113.71504211425781 L592.8176879882812,113.60929870605469 L592.7158203125,113.47416687011719 L592.3588256835938,112.9649887084961 L592.3585815429688,112.7778549194336 L592.4651489257812,112.50648498535156 L592.7899169921875,112.35490417480469 L593.1858520507812,112.3874740600586 M593.4016723632812,111.67401123046875 L593.1298217773438,111.39198303222656 L592.8923950195312,111.0115966796875 L592.8782958984375,110.93464660644531 L593.0545043945312,111.04734802246094 L593.4579467773438,111.42723083496094 L594.270751953125,112.00023651123047 L594.9697875976562,112.17633819580078 L595.5042114257812,112.15406036376953 L595.8031005859375,112.18539428710938 L595.7305297851562,112.09095764160156 M596.4417724609375,112.1717758178711 L596.1863403320312,112.47381591796875 L596.261962890625,112.83587646484375 L596.56689453125,113.38765716552734 L597.1666259765625,114.02029418945312 L597.6160278320312,114.15918731689453 L597.7760009765625,114.02523803710938 L597.572265625,113.85132598876953 L597.6090087890625,113.3826904296875 L597.7183227539062,113.03872680664062 L597.99560546875,112.90840911865234 M598.3299560546875,111.7759780883789 L598.666015625,112.04508209228516 L598.992431640625,112.31031799316406 " fill="none" stroke="black" stroke-linecap="round" stroke-width="2" /></svg>